<svg width="22" height="22" viewBox="0 0 22 22" fill="none" xmlns="http://www.w3.org/2000/svg">
<path fill-rule="evenodd" clip-rule="evenodd" d="M11.0777 21.3859C16.7707 21.3859 21.3859 16.7707 21.3859 11.0777C21.3859 5.38466 16.7707 0.769531 11.0777 0.769531C5.38466 0.769531 0.769531 5.38466 0.769531 11.0777C0.769531 16.7707 5.38466 21.3859 11.0777 21.3859ZM20.3859 11.0777C20.3859 16.2185 16.2185 20.3859 11.0777 20.3859C5.93694 20.3859 1.76953 16.2185 1.76953 11.0777C1.76953 5.93694 5.93694 1.76953 11.0777 1.76953C16.2185 1.76953 20.3859 5.93694 20.3859 11.0777ZM14.4721 14.4059C14.7285 14.5085 15.0195 14.3838 15.122 14.1274C15.2246 13.871 15.0999 13.58 14.8435 13.4774L11.5777 12.1711V6.78154C11.5777 6.5054 11.3539 6.28154 11.0777 6.28154C10.8016 6.28154 10.5777 6.5054 10.5777 6.78154V12.5096C10.5777 12.7141 10.7022 12.898 10.892 12.9739L14.4721 14.4059Z" fill="#999999"/>
</svg>
