<svg width="90" height="90" viewBox="0 0 90 90" fill="none" xmlns="http://www.w3.org/2000/svg">
<path d="M22.72 57.8637L38.8337 64.5786C39.0596 64.6727 39.3062 64.7062 39.549 64.6759C39.7918 64.6455 40.0225 64.5523 40.2183 64.4054L56.322 52.3277L66.7543 58.8479C67.0164 59.0117 67.3251 59.0846 67.6328 59.0553C67.9404 59.026 68.2299 58.8962 68.4564 58.6859L88.1439 40.4046L86.2303 38.3438L67.3317 55.8915L56.9949 49.431C56.7542 49.2805 56.4735 49.2064 56.1899 49.2185C55.9063 49.2305 55.6329 49.3281 55.4058 49.4985L39.1737 61.6726L23.0405 54.9503C22.8096 54.8542 22.5573 54.8213 22.3095 54.8551C22.0618 54.8889 21.8275 54.9882 21.6309 55.1426L1.94336 70.6114L3.68078 72.8231L22.72 57.8637Z" fill="#03A3DF"/>
<path d="M7.53333 63.0052L9.34177 60.851C7.36036 59.1896 6.06916 56.8494 5.72019 54.2873C5.37122 51.7251 5.98952 49.1249 7.45441 46.994L20.4274 28.1244H33.0102L45.9828 46.994C46.7915 48.1672 47.3488 49.4949 47.6199 50.8937L50.3797 50.3551C50.0354 48.5779 49.3274 46.8912 48.3 45.4007L35.1563 26.2814V21.562L38.3731 17.2729C39.0214 16.4047 39.3728 15.3507 39.3751 14.2671C39.375 13.4132 39.1566 12.5735 38.7408 11.8277C38.3249 11.082 37.7253 10.4549 36.999 10.006C36.2726 9.55707 35.4436 9.30128 34.5906 9.26288C33.7376 9.22448 32.8889 9.40475 32.1251 9.78657L26.7188 12.4897L21.3125 9.78657C20.5487 9.40475 19.7 9.22448 18.847 9.26288C17.994 9.30128 17.165 9.55707 16.4386 10.006C15.7123 10.4549 15.1127 11.082 14.6968 11.8277C14.281 12.5735 14.0626 13.4132 14.0626 14.2671C14.0648 15.3507 14.4162 16.4047 15.0645 17.2729L18.2813 21.562V26.2814L5.13691 45.4007C3.27582 48.1077 2.49016 51.411 2.93325 54.6661C3.37634 57.9211 5.01639 60.8942 7.53333 63.0052ZM32.3438 25.3119H21.0938V22.4994H32.3438V25.3119ZM16.8751 14.2671C16.8751 13.8926 16.9709 13.5244 17.1533 13.1973C17.3357 12.8703 17.5986 12.5952 17.9171 12.3984C18.2357 12.2015 18.5993 12.0893 18.9733 12.0724C19.3474 12.0556 19.7196 12.1346 20.0546 12.302L26.0899 15.3196C26.2851 15.4173 26.5005 15.4681 26.7188 15.4681C26.9371 15.4681 27.1525 15.4173 27.3477 15.3196L33.383 12.302C33.718 12.1346 34.0902 12.0556 34.4643 12.0724C34.8384 12.0893 35.2019 12.2015 35.5205 12.3984C35.839 12.5952 36.1019 12.8703 36.2843 13.1973C36.4667 13.5244 36.5625 13.8926 36.5626 14.2671C36.5615 14.7423 36.4075 15.2046 36.1231 15.5854L33.0469 19.6869H20.3907L17.3145 15.5854C17.0302 15.2046 16.8761 14.7423 16.8751 14.2671Z" fill="#03A3DF"/>
<path d="M30.9375 42.1875V41.9824C30.9364 41.128 30.6632 40.2962 30.1575 39.6075C29.6518 38.9189 28.9399 38.4092 28.125 38.1524V36.5625H25.3125V38.1524C24.5493 38.3918 23.8749 38.8539 23.3761 39.4792C22.8773 40.1045 22.5766 40.8646 22.5128 41.662C22.449 42.4593 22.6248 43.2576 23.0179 43.9543C23.4109 44.651 24.0031 45.2144 24.7185 45.5722L27.4607 46.9433C27.7027 47.0642 27.8968 47.2634 28.0115 47.5084C28.1262 47.7535 28.1549 48.0301 28.0927 48.2934C28.0306 48.5568 27.8814 48.7914 27.6692 48.9594C27.4571 49.1273 27.1945 49.2187 26.9239 49.2188H26.5136C26.1952 49.2184 25.8898 49.0918 25.6647 48.8666C25.4395 48.6414 25.3128 48.3361 25.3125 48.0176V47.8125H22.5V48.0176C22.5011 48.872 22.7743 49.7038 23.28 50.3925C23.7857 51.0811 24.4976 51.5908 25.3125 51.8476V53.4375H28.125V51.8476C28.8882 51.6081 29.5626 51.1461 30.0614 50.5208C30.5602 49.8955 30.8609 49.1354 30.9247 48.338C30.9885 47.5407 30.8127 46.7424 30.4196 46.0457C30.0266 45.349 29.4344 44.7856 28.719 44.4278L25.9768 43.0567C25.7348 42.9358 25.5407 42.7366 25.426 42.4916C25.3113 42.2465 25.2826 41.9699 25.3448 41.7066C25.4069 41.4432 25.5561 41.2086 25.7683 41.0406C25.9804 40.8727 26.243 40.7813 26.5136 40.7812H26.9239C27.2423 40.7816 27.5477 40.9082 27.7728 41.1334C27.998 41.3586 28.1247 41.6639 28.125 41.9824V42.1875H30.9375Z" fill="#F2C94C"/>
<path d="M16.875 43.5938H19.6875V46.4062H16.875V43.5938Z" fill="#03A3DF"/>
<path d="M33.75 43.5938H36.5625V46.4062H33.75V43.5938Z" fill="#03A3DF"/>
<path d="M47.8125 19.4179L64.6875 15.8027V22.4999H60.4688V25.3124H64.6875V28.1249H60.4688V30.9374H64.6875V33.7499H60.4688V36.5624H64.6875V39.3749H60.4688V42.1874H64.6875V50.6249H67.5V14.0624C67.5 13.8527 67.4531 13.6457 67.3627 13.4565C67.2724 13.2673 67.1409 13.1007 66.9778 12.9689C66.8148 12.8371 66.6243 12.7434 66.4203 12.6947C66.2164 12.646 66.0042 12.6435 65.7991 12.6875L46.1116 16.9062C45.797 16.9736 45.515 17.1469 45.3127 17.3971C45.1104 17.6474 45 17.9594 45 18.2812V28.1249H47.8125V19.4179Z" fill="#03A3DF"/>
<path d="M59.0625 5.84007L75.9375 8.25073V12.6562H70.3125V15.4687H75.9375V18.2812H70.3125V21.0937H75.9375V23.9062H70.3125V26.7187H75.9375V29.5312H78.75V7.03116C78.75 6.69269 78.6279 6.36558 78.4061 6.10988C78.1843 5.85418 77.8778 5.68704 77.5427 5.63915L57.8552 2.82665C57.6558 2.79814 57.4525 2.81282 57.2593 2.8697C57.066 2.92658 56.8872 3.02433 56.7349 3.15633C56.5827 3.28833 56.4607 3.45149 56.377 3.63478C56.2933 3.81806 56.25 4.01718 56.25 4.21866V11.2499H59.0625V5.84007Z" fill="#03A3DF"/>
<path d="M54.8434 31.2714V46.4062H57.6559V29.5312C57.6559 29.3215 57.609 29.1145 57.5187 28.9253C57.4283 28.7361 57.2968 28.5695 57.1337 28.4376C56.9707 28.3058 56.7802 28.2121 56.5763 28.1635C56.3723 28.1148 56.1601 28.1123 55.9551 28.1562L41.8926 31.1696L42.4818 33.9195L54.8434 31.2714Z" fill="#03A3DF"/>
<path d="M70.3125 35.1562H78.75V39.375H81.5625V33.75C81.5625 33.377 81.4143 33.0194 81.1506 32.7556C80.8869 32.4919 80.5292 32.3438 80.1562 32.3438H70.3125V35.1562Z" fill="#03A3DF"/>
<path d="M47.8125 36.5625H52.0312V39.375H47.8125V36.5625Z" fill="#03A3DF"/>
<path d="M49.2188 42.1875H52.0312V45H49.2188V42.1875Z" fill="#03A3DF"/>
<path d="M70.3125 37.9688H75.9375V40.7812H70.3125V37.9688Z" fill="#03A3DF"/>
<path d="M70.3125 43.5938H75.9375V46.4062H70.3125V43.5938Z" fill="#03A3DF"/>
<path d="M82.9688 52.0312H80.1562V84.375H77.3438V56.25H74.5312V84.375H71.7188V61.875H68.9062V84.375H66.0938V61.875H63.2812V84.375H60.4688V59.0625H57.6562V84.375H54.8438V59.0625H52.0312V84.375H49.2188V63.2812H46.4062V84.375H43.5938V67.5H40.7812V84.375H37.9688V67.5H35.1562V84.375H32.3438V66.0938H29.5312V84.375H26.7188V63.2812H23.9062V84.375H21.0938V64.6875H18.2812V84.375H15.4688V68.9062H12.6562V84.375H9.84375V73.125H7.03125V84.375H2.8125V87.1875H87.1875V84.375H82.9688V52.0312Z" fill="#03A3DF"/>
</svg>
