<svg width="110" height="110" viewBox="0 0 110 110" fill="none" xmlns="http://www.w3.org/2000/svg">
<path opacity="0.3" d="M80 37H97.5L100 51H80V37Z" fill="#03A3DF"/>
<rect x="102" y="59" width="6" height="6" fill="#FBE51D"/>
<path d="M102.3 49.7053L99.451 38.3111C100.23 38.1456 100.814 37.4547 100.814 36.6269V34.7898C100.814 30.801 97.5689 27.556 93.5804 27.556H80.6055V23.7666C80.6055 21.8038 79.0088 20.207 77.046 20.207H10.908C8.94523 20.207 7.34852 21.8038 7.34852 23.7666V54.9984C7.34852 55.9495 8.11959 56.7208 9.07092 56.7208C10.022 56.7208 10.7933 55.9497 10.7933 54.9984V23.7666C10.7933 23.7032 10.8447 23.6518 10.908 23.6518H77.0458C77.1091 23.6518 77.1605 23.7032 77.1605 23.7666V54.9988C77.1605 55.9499 77.9316 56.7212 78.8829 56.7212C79.834 56.7212 80.6053 55.9502 80.6053 54.9988V53.0463H100.923C100.925 53.0463 100.926 53.0468 100.927 53.0468C100.929 53.0468 100.931 53.0465 100.932 53.0465C103.432 53.0483 105.555 54.6892 106.284 56.9505H100.929C99.9775 56.9505 99.2063 57.7215 99.2063 58.6729V62.3471C99.2063 65.3229 101.627 67.7438 104.603 67.7438H106.555V75.322H102.051C100.572 71.0502 96.5112 67.9732 91.7428 67.9732C86.9743 67.9732 82.9134 71.0502 81.4342 75.322H80.6049V62.3469C80.6049 61.3958 79.8338 60.6245 78.8825 60.6245C77.9314 60.6245 77.1601 61.3956 77.1601 62.3469V75.3216H41.4255C39.9461 71.0498 35.8854 67.9728 31.1169 67.9728C26.3484 67.9728 22.2875 71.0498 20.8083 75.3216H10.908C10.8447 75.3216 10.7933 75.2702 10.7933 75.2068V71.4176H18.2568C19.2079 71.4176 19.9792 70.6465 19.9792 69.6952C19.9792 68.7439 19.2081 67.9728 18.2568 67.9728H1.7224C0.771289 67.9728 0 68.7439 0 69.6952C0 70.6465 0.771074 71.4176 1.7224 71.4176H7.34873V75.2068C7.34873 77.1696 8.94545 78.7664 10.9083 78.7664H20.2119C20.2114 78.8046 20.2088 78.8426 20.2088 78.8811C20.2088 84.8958 25.1023 89.7891 31.1169 89.7891C37.1314 89.7891 42.0249 84.8958 42.0249 78.8811C42.0249 78.8424 42.0224 78.8046 42.0219 78.7664H80.8378C80.8373 78.8046 80.8347 78.8426 80.8347 78.8811C80.8347 84.8958 85.7282 89.7891 91.7428 89.7891C97.7573 89.7891 102.651 84.8958 102.651 78.8811C102.651 78.8424 102.648 78.8046 102.648 78.7664H108.277C109.228 78.7664 110 77.9953 110 77.0439V58.6724C110 54.1367 106.653 50.3681 102.3 49.7053ZM80.6055 31.0006H93.5804C95.6697 31.0006 97.3696 32.7004 97.3696 34.7898V34.9045H80.6055V31.0006ZM80.6055 49.6017V38.3491H95.9099L98.7231 49.6017H80.6055ZM31.1169 86.345C27.0016 86.345 23.6534 82.9971 23.6534 78.8815C23.6534 74.766 27.0016 71.418 31.1169 71.418C35.2322 71.418 38.5804 74.766 38.5804 78.8815C38.5804 82.9971 35.2322 86.345 31.1169 86.345ZM91.7432 86.345C87.6279 86.345 84.2798 82.9971 84.2798 78.8815C84.2798 74.766 87.6279 71.418 91.7432 71.418C95.8586 71.418 99.2067 74.766 99.2067 78.8815C99.2067 82.9971 95.8586 86.345 91.7432 86.345ZM106.555 64.299H104.603C103.527 64.299 102.651 63.4233 102.651 62.3469V60.3948H106.555V64.299H106.555Z" fill="#03A3DF"/>
<path d="M31.1172 75.3242C29.1543 75.3242 27.5576 76.9209 27.5576 78.8838C27.5576 80.8466 29.1543 82.4433 31.1172 82.4433C33.08 82.4433 34.6767 80.8466 34.6767 78.8838C34.6767 76.9209 33.08 75.3242 31.1172 75.3242Z" fill="#03A3DF"/>
<path d="M91.7431 75.3242C89.7803 75.3242 88.1836 76.9209 88.1836 78.8838C88.1836 80.8466 89.7803 82.4433 91.7431 82.4433C93.7059 82.4433 95.3027 80.8466 95.3027 78.8838C95.3027 76.9209 93.7059 75.3242 91.7431 75.3242Z" fill="#03A3DF"/>
<path d="M71.5344 67.9766H45.8142C44.8631 67.9766 44.0918 68.7476 44.0918 69.699C44.0918 70.6503 44.8629 71.4214 45.8142 71.4214H71.5344C72.4855 71.4214 73.2568 70.6503 73.2568 69.699C73.2568 68.7476 72.4857 67.9766 71.5344 67.9766Z" fill="#03A3DF"/>
<path d="M27.4422 60.625H5.39623C4.44512 60.625 3.67383 61.3961 3.67383 62.3474C3.67383 63.2987 4.4449 64.0698 5.39623 64.0698H27.4422C28.3933 64.0698 29.1646 63.2987 29.1646 62.3474C29.1646 61.3961 28.3933 60.625 27.4422 60.625Z" fill="#03A3DF"/>
<path d="M59.8919 37.2465C59.2194 36.574 58.1287 36.574 57.4562 37.2467L42.1396 52.5631L34.1716 44.5952C33.499 43.9226 32.4084 43.9226 31.736 44.5952C31.0633 45.2679 31.0633 46.3582 31.736 47.0309L40.9218 56.2168C41.258 56.5532 41.6989 56.7212 42.1396 56.7212C42.5802 56.7212 43.0213 56.5532 43.3573 56.2168L59.8917 39.6824C60.5643 39.0095 60.5643 37.9192 59.8919 37.2465Z" fill="#03A3DF"/>
</svg>
