<svg width="90" height="90" viewBox="0 0 90 90" fill="none" xmlns="http://www.w3.org/2000/svg">
<circle opacity="0.2" cx="60.5" cy="59.5" r="28.5" fill="#03A3DF"/>
<path d="M60.1094 57.719C57.977 57.719 56.2422 56.2175 56.2422 54.3719C56.2422 52.5262 57.977 51.0247 60.1094 51.0247C62.2418 51.0247 63.9765 52.5262 63.9765 54.3719C63.9765 55.3426 64.7637 56.1297 65.7344 56.1297C66.705 56.1297 67.4922 55.3426 67.4922 54.3719C67.4922 51.1508 65.092 48.4423 61.8672 47.7072V46.793C61.8672 45.8223 61.08 45.0352 60.1094 45.0352C59.1387 45.0352 58.3516 45.8223 58.3516 46.793V47.7072C55.1267 48.4423 52.7266 51.1508 52.7266 54.3719C52.7266 58.156 56.0385 61.2346 60.1094 61.2346C62.2418 61.2346 63.9765 62.7361 63.9765 64.5818C63.9765 66.4275 62.2418 67.929 60.1094 67.929C57.977 67.929 56.2422 66.4275 56.2422 64.5818C56.2422 63.6112 55.455 62.824 54.4844 62.824C53.5137 62.824 52.7266 63.6112 52.7266 64.5818C52.7266 67.803 55.1267 70.5114 58.3516 71.2466V72.0059C58.3516 72.9766 59.1387 73.7637 60.1094 73.7637C61.08 73.7637 61.8672 72.9766 61.8672 72.0059V71.2466C65.092 70.5114 67.4922 67.803 67.4922 64.5818C67.4922 60.7976 64.1803 57.719 60.1094 57.719Z" fill="#03A3DF"/>
<path d="M79.3617 47.2621C77.0655 43.6841 73.8304 40.821 70.0063 38.9827C69.1311 38.5618 68.0808 38.9303 67.6603 39.8053C67.2397 40.6803 67.6079 41.7305 68.483 42.1511C75.147 45.3545 79.4528 52.1993 79.4528 59.5888C79.4528 62.7507 78.6733 65.8865 77.1991 68.6575C76.7431 69.5144 77.0681 70.5789 77.9252 71.0349C78.1882 71.1748 78.4708 71.2413 78.7493 71.2413C79.3782 71.2413 79.9866 70.9027 80.3027 70.3088C82.0466 67.0315 82.9684 63.3245 82.9684 59.5888C82.9684 55.2013 81.7212 50.9388 79.3617 47.2621Z" fill="#03A3DF"/>
<path d="M62.8722 36.7385L62.7539 36.7383C61.7832 36.7383 60.9961 37.5253 60.9961 38.4961C60.9961 39.4669 61.7832 40.2539 62.7539 40.2539L62.8557 40.2541C62.8585 40.2541 62.8611 40.2541 62.8641 40.2541C63.8311 40.2541 64.6172 39.4725 64.6218 38.5045C64.6262 37.5337 63.8429 36.743 62.8722 36.7385Z" fill="#03A3DF"/>
<path d="M51.7508 77.0276C45.087 73.824 40.7812 66.9793 40.7812 59.59C40.7812 56.428 41.5607 53.2923 43.0349 50.5213C43.4909 49.6643 43.1659 48.5998 42.3088 48.1438C41.452 47.6879 40.3871 48.0129 39.9313 48.87C38.1874 52.1474 37.2656 55.8543 37.2656 59.59C37.2656 63.9775 38.5128 68.2398 40.8723 71.9166C43.1685 75.4946 46.4036 78.3578 50.2277 80.1962C50.4733 80.3144 50.7327 80.3701 50.9881 80.3701C51.6427 80.3701 52.271 80.0029 52.5737 79.3736C52.994 78.4986 52.6259 77.4483 51.7508 77.0276Z" fill="#03A3DF"/>
<path d="M57.4808 78.9261L57.379 78.9258C56.4038 78.924 55.6177 79.7043 55.6133 80.6753C55.6087 81.6462 56.3924 82.4368 57.363 82.4414L57.4808 82.4418C58.4515 82.4418 59.2386 81.6546 59.2386 80.684C59.2386 79.7133 58.4515 78.9261 57.4808 78.9261Z" fill="#03A3DF"/>
<path d="M68.0991 30.7912C67.8852 30.2814 67.6231 29.801 67.3181 29.3554H71.8944C76.3529 29.3554 79.9803 25.728 79.9803 21.2695C79.9803 16.811 76.3529 13.1836 71.8944 13.1836H57.8179C58.7128 11.8824 59.2382 10.3083 59.2382 8.61327C59.2382 4.15476 55.6108 0.527344 51.1522 0.527344H8.08592C3.62741 0.527344 0 4.15476 0 8.61327C0 13.0718 3.62741 16.6992 8.08592 16.6992H22.1625C21.2676 18.0003 20.7421 19.5744 20.7421 21.2695C20.7421 22.9645 21.2674 24.5387 22.1625 25.8398H17.5781C13.1196 25.8398 9.49217 29.4672 9.49217 33.9257C9.49217 36.4863 10.6899 38.7713 12.5534 40.2538C10.6899 41.7364 9.49217 44.0213 9.49217 46.5819C9.49217 49.1425 10.6899 51.4275 12.5534 52.9101C10.6899 54.3926 9.49217 56.6776 9.49217 59.2382C9.49217 61.7988 10.6899 64.0837 12.5534 65.5663C10.6899 67.0488 9.49217 69.3338 9.49217 71.8944C9.49217 76.3529 13.1196 79.9803 17.5781 79.9803H38.2939C43.7512 85.8175 51.5147 89.4727 60.1173 89.4727C76.5946 89.4727 90 76.0673 90 59.5899C90 45.876 80.7135 34.2919 68.0991 30.7912ZM71.8944 16.6992C74.4146 16.6992 76.4647 18.7495 76.4647 21.2695C76.4647 23.7895 74.4146 25.8398 71.8944 25.8398H60.6444H28.8281C26.3079 25.8398 24.2578 23.7895 24.2578 21.2695C24.2578 18.7495 26.3079 16.6992 28.8281 16.6992H71.8944ZM8.08592 13.1836C5.56575 13.1836 3.51562 11.1333 3.51562 8.61327C3.51562 6.09327 5.56575 4.04296 8.08592 4.04296H51.1522C53.6724 4.04296 55.7226 6.09327 55.7226 8.61327C55.7226 11.1333 53.6724 13.1836 51.1522 13.1836H8.08592ZM17.5781 29.3554H60.6444C61.3525 29.3554 62.0305 29.5199 62.6387 29.8146C61.8072 29.7448 60.9666 29.7072 60.1173 29.7072C51.8652 29.7072 44.384 33.0697 38.971 38.496H17.5781C15.0581 38.496 13.0078 36.4457 13.0078 33.9257C13.0078 31.4057 15.0581 29.3554 17.5781 29.3554ZM17.5781 42.0116H35.9674C33.972 44.7456 32.4291 47.8291 31.4493 51.1522H17.5781C15.0579 51.1522 13.0078 49.1021 13.0078 46.5819C13.0078 44.062 15.0579 42.0116 17.5781 42.0116ZM17.5781 54.6679H30.6421C30.3755 56.2698 30.2345 57.9135 30.2345 59.5899C30.2345 61.0218 30.338 62.4298 30.5337 63.8085H17.5781C15.0579 63.8085 13.0078 61.7583 13.0078 59.2382C13.0078 56.718 15.0579 54.6679 17.5781 54.6679ZM17.5781 76.4647C15.0579 76.4647 13.0078 74.4146 13.0078 71.8944C13.0078 69.3742 15.0579 67.3241 17.5781 67.3241H31.2514C32.1384 70.6311 33.5793 73.713 35.4689 76.4647H17.5781ZM60.1173 85.957C45.5784 85.957 33.7501 74.1288 33.7501 59.5899C33.7501 45.0511 45.5784 33.2228 60.1173 33.2228C74.6561 33.2228 86.4844 45.0511 86.4844 59.5899C86.4844 74.1288 74.6561 85.957 60.1173 85.957Z" fill="#03A3DF"/>
</svg>
