<svg width="100" height="100" viewBox="0 0 100 100" fill="none" xmlns="http://www.w3.org/2000/svg">
<path d="M67.229 54.053L58.7169 50.2698C58.1155 50.0026 57.7272 49.4047 57.7272 48.7469V46.4094C60.5866 44.1311 62.4245 40.6227 62.4245 36.6911V33.4006C63.3665 32.8801 63.9901 31.8742 63.9901 30.7477V30.4283C63.9901 23.5775 58.4165 18.0039 51.5657 18.0039H48.4344C41.5836 18.0039 36.01 23.5775 36.01 30.4283V33.3258C36.01 34.316 36.4361 35.2131 37.1789 35.7871C37.3049 35.8844 37.4375 35.97 37.5756 36.044V36.6909C37.5756 40.6225 39.4133 44.1309 42.2725 46.409V48.7467C42.2725 49.4046 41.884 50.0024 41.2828 50.2696L32.7707 54.0528C29.983 55.2917 28.1816 58.0636 28.1816 61.1141V80.529C28.1816 81.338 28.8375 81.9939 29.6465 81.9939C30.4555 81.9939 31.1113 81.338 31.1113 80.529V61.1143C31.1113 60.9446 31.1234 60.7768 31.141 60.6104L35.0633 64.5327C35.6736 65.1433 36.01 65.9548 36.01 66.8183V80.5292C36.01 81.3382 36.6658 81.9941 37.4748 81.9941C38.2838 81.9941 38.9397 81.3382 38.9397 80.5292V66.8183C38.9397 65.1724 38.2988 63.6251 37.135 62.4612L32.459 57.785C32.8803 57.3479 33.3858 56.9856 33.9608 56.73L42.3293 53.0106L48.5354 59.2167V80.529C48.5354 81.338 49.1913 81.9939 50.0002 81.9939C50.8092 81.9939 51.4651 81.338 51.4651 80.529V59.2169L57.6712 53.0108L66.0395 56.73C66.6145 56.9856 67.12 57.3479 67.5413 57.7852L62.8653 62.4612C61.7014 63.6251 61.0606 65.1724 61.0606 66.8183V80.5292C61.0606 81.3382 61.7165 81.9941 62.5255 81.9941C63.3344 81.9941 63.9903 81.3382 63.9903 80.5292V66.8183C63.9903 65.955 64.3264 65.1433 64.937 64.5327L68.8591 60.6106C68.8767 60.777 68.8888 60.9444 68.8888 61.1141V80.529C68.8888 81.338 69.5446 81.9939 70.3536 81.9939C71.1626 81.9939 71.8185 81.338 71.8185 80.529V61.1143C71.8179 58.0638 70.0167 55.2919 67.229 54.053ZM49.9997 56.5386L44.5541 51.0928C44.9682 50.3962 45.202 49.5901 45.202 48.7469V48.1508C46.6791 48.7715 48.3 49.1155 49.9999 49.1155C51.6997 49.1155 53.3204 48.7717 54.7973 48.151V48.7469C54.7973 49.5903 55.0311 50.3962 55.4454 51.093L49.9997 56.5386ZM49.9999 46.1856C44.7645 46.1858 40.5051 41.9264 40.5051 36.6911V36.0323C41.4192 35.67 42.3114 35.0934 43.1655 34.3053C43.7598 33.7567 43.7971 32.8299 43.2483 32.2354C42.6996 31.641 41.7731 31.6037 41.1783 32.1524C40.4457 32.8287 39.7137 33.2657 39.0031 33.4512C38.986 33.4557 38.9733 33.4576 38.9643 33.4584C38.9537 33.4379 38.9395 33.395 38.9395 33.326V30.4285C38.9395 25.1932 43.1989 20.9338 48.4342 20.9338H51.5655C56.801 20.9338 61.0602 25.1932 61.0602 30.4285V30.7479C61.0602 30.7953 61.0317 30.8365 60.9942 30.844C52.2225 32.5764 47.8229 29.3113 46.3385 27.827C45.7664 27.2549 44.8389 27.2549 44.267 27.827C43.695 28.399 43.695 29.3266 44.267 29.8985C48.8159 34.4473 55.4536 34.5293 59.4946 34.0438V36.6909C59.4946 41.9262 55.2352 46.1856 49.9999 46.1856Z" fill="#03A3DF"/>
<g opacity="0.5">
<path d="M26.4145 46.0852V42.9534C26.4145 39.1319 24.4286 35.7678 21.4362 33.8319C21.6209 33.2391 21.7174 32.6182 21.7174 31.9938C21.7174 28.5961 18.9534 25.832 15.5557 25.832C12.158 25.832 9.39396 28.5963 9.39396 31.9938C9.39396 32.626 9.48967 33.2408 9.67482 33.8322C6.68263 35.768 4.69688 39.1321 4.69688 42.9534V46.0846C4.69688 49.7852 6.5588 53.0575 9.39377 55.0188V58.2401C9.39377 58.8755 9.04084 59.4465 8.47267 59.7307L3.40606 62.2639C1.30508 63.3147 0 65.4264 0 67.7755V80.5292C0 81.3382 0.655861 81.9941 1.46485 81.9941C2.27383 81.9941 2.92969 81.3382 2.92969 80.5292V68.4091L5.31603 70.7954C5.92638 71.4059 6.26271 72.2175 6.26271 73.0809V80.5292C6.26271 81.3382 6.91857 81.9941 7.72755 81.9941C8.53654 81.9941 9.1924 81.3382 9.1924 80.5292V73.0809C9.1924 71.435 8.55138 69.8878 7.38771 68.7239L4.06641 65.4026C4.0504 65.3866 4.03321 65.3727 4.0168 65.3577C4.2252 65.1737 4.45899 65.0135 4.71642 64.8846L9.78303 62.3514C10.0426 62.2215 10.2842 62.0682 10.5094 61.8979L14.0908 65.4796V80.5294C14.0908 81.3384 14.7467 81.9942 15.5557 81.9942C16.3647 81.9942 17.0205 81.3384 17.0205 80.5294V65.4794L20.6022 61.8977C20.8276 62.0682 21.069 62.2216 21.3286 62.3512L22.7256 63.0499C22.936 63.1552 23.1594 63.205 23.3797 63.205C23.917 63.205 24.4344 62.9081 24.6911 62.395C25.053 61.6714 24.7596 60.7915 24.036 60.4298L22.6389 59.7311C22.0705 59.4469 21.7176 58.8758 21.7176 58.2407V55.0194C24.5526 53.0581 26.4145 49.7856 26.4145 46.0852ZM15.5557 28.7617C17.3379 28.7617 18.7877 30.2117 18.7877 31.9938C18.7877 32.1901 18.7702 32.3824 18.7366 32.5709C17.7299 32.2619 16.6621 32.0945 15.5557 32.0945C14.4508 32.0945 13.3844 32.2613 12.3793 32.5695C12.3455 32.3811 12.3237 32.1897 12.3237 31.9938C12.3237 30.2115 13.7735 28.7617 15.5557 28.7617ZM15.5557 35.0244C19.9278 35.0244 23.4848 38.5815 23.4848 42.9535V43.4844C17.3862 45.3516 13.7516 40.7123 13.5963 40.509C13.3414 40.1694 12.9518 39.9569 12.5283 39.9268C12.1049 39.8971 11.6889 40.052 11.3887 40.3522C9.99045 41.7504 8.62092 42.4248 7.63185 42.7504C7.74025 38.4719 11.2518 35.0244 15.5557 35.0244ZM15.5557 62.8009L12.1707 59.4159C12.2696 59.0381 12.3237 58.6444 12.3237 58.2403V56.4522C13.3449 56.7714 14.4307 56.9434 15.5557 56.9434C16.6807 56.9434 17.7664 56.7714 18.7877 56.4522V58.2403C18.7877 58.6444 18.8418 59.0383 18.9407 59.4159L15.5557 62.8009ZM15.5557 54.0137C11.1836 54.0137 7.62658 50.4567 7.62658 46.0846V45.7811C8.79474 45.5127 10.5268 44.8891 12.3336 43.436C12.9729 44.0391 13.8865 44.7789 15.05 45.4135C16.4262 46.1641 18.3268 46.8584 20.6483 46.8584C21.5305 46.8584 22.4745 46.7559 23.4723 46.5204C23.2452 50.6907 19.7815 54.0137 15.5557 54.0137Z" fill="#03A3DF"/>
<path d="M15.5557 35.0244C19.9278 35.0244 23.4848 38.5815 23.4848 42.9535V43.4844C17.3862 45.3516 13.7516 40.7123 13.5963 40.509C13.3414 40.1694 12.9518 39.9569 12.5283 39.9268C12.1049 39.8971 11.6889 40.052 11.3887 40.3522C9.99045 41.7504 8.62092 42.4248 7.63185 42.7504C7.74025 38.4719 11.2518 35.0244 15.5557 35.0244Z" fill="#03A3DF"/>
<path d="M15.5557 28.7617C17.3379 28.7617 18.7877 30.2117 18.7877 31.9938C18.7877 32.1901 18.7702 32.3824 18.7366 32.5709C17.7299 32.2619 16.6621 32.0945 15.5557 32.0945C14.4508 32.0945 13.3844 32.2613 12.3793 32.5695C12.3455 32.3811 12.3237 32.1897 12.3237 31.9938C12.3237 30.2115 13.7735 28.7617 15.5557 28.7617Z" fill="#03A3DF"/>
</g>
<path d="M26.4145 46.0852V42.9534C26.4145 39.1319 24.4286 35.7678 21.4362 33.8319C21.6209 33.2391 21.7174 32.6182 21.7174 31.9938C21.7174 28.5961 18.9534 25.832 15.5557 25.832C12.158 25.832 9.39396 28.5963 9.39396 31.9938C9.39396 32.626 9.48967 33.2408 9.67482 33.8322C6.68263 35.768 4.69688 39.1321 4.69688 42.9534V46.0846C4.69688 49.7852 6.5588 53.0575 9.39377 55.0188V58.2401C9.39377 58.8755 9.04084 59.4465 8.47267 59.7307L3.40606 62.2639C1.30508 63.3147 0 65.4264 0 67.7755V80.5292C0 81.3382 0.655861 81.9941 1.46485 81.9941C2.27383 81.9941 2.92969 81.3382 2.92969 80.5292V68.4091L5.31603 70.7954C5.92638 71.4059 6.26271 72.2175 6.26271 73.0809V80.5292C6.26271 81.3382 6.91857 81.9941 7.72755 81.9941C8.53654 81.9941 9.1924 81.3382 9.1924 80.5292V73.0809C9.1924 71.435 8.55138 69.8878 7.38771 68.7239L4.06641 65.4026C4.0504 65.3866 4.03321 65.3727 4.0168 65.3577C4.2252 65.1737 4.45899 65.0135 4.71642 64.8846L9.78303 62.3514C10.0426 62.2215 10.2842 62.0682 10.5094 61.8979L14.0908 65.4796V80.5294C14.0908 81.3384 14.7467 81.9942 15.5557 81.9942C16.3647 81.9942 17.0205 81.3384 17.0205 80.5294V65.4794L20.6022 61.8977C20.8276 62.0682 21.069 62.2216 21.3286 62.3512L22.7256 63.0499C22.936 63.1552 23.1594 63.205 23.3797 63.205C23.917 63.205 24.4344 62.9081 24.6911 62.395C25.053 61.6714 24.7596 60.7915 24.036 60.4298L22.6389 59.7311C22.0706 59.4469 21.7176 58.8758 21.7176 58.2407V55.0194C24.5526 53.0581 26.4145 49.7856 26.4145 46.0852ZM15.5557 28.7617C17.3379 28.7617 18.7877 30.2117 18.7877 31.9938C18.7877 32.1901 18.7702 32.3824 18.7366 32.5709C17.7299 32.2619 16.6621 32.0945 15.5557 32.0945C14.4508 32.0945 13.3844 32.2613 12.3793 32.5695C12.3455 32.3811 12.3237 32.1897 12.3237 31.9938C12.3237 30.2115 13.7735 28.7617 15.5557 28.7617ZM15.5557 35.0244C19.9278 35.0244 23.4848 38.5815 23.4848 42.9535V43.4844C17.3862 45.3516 13.7516 40.7123 13.5963 40.509C13.3414 40.1694 12.9518 39.9569 12.5283 39.9268C12.1049 39.8971 11.6889 40.052 11.3887 40.3522C9.99045 41.7504 8.62092 42.4248 7.63185 42.7504C7.74025 38.4719 11.2518 35.0244 15.5557 35.0244ZM15.5557 62.8009L12.1707 59.4159C12.2696 59.0381 12.3237 58.6444 12.3237 58.2403V56.4522C13.3449 56.7713 14.4307 56.9434 15.5557 56.9434C16.6807 56.9434 17.7664 56.7713 18.7877 56.4522V58.2403C18.7877 58.6444 18.8418 59.0383 18.9407 59.4159L15.5557 62.8009ZM15.5557 54.0137C11.1836 54.0137 7.62658 50.4567 7.62658 46.0846V45.7811C8.79474 45.5127 10.5268 44.8891 12.3336 43.436C12.9729 44.0391 13.8865 44.7789 15.05 45.4135C16.4262 46.1641 18.3268 46.8584 20.6483 46.8584C21.5305 46.8584 22.4745 46.7559 23.4723 46.5204C23.2452 50.6907 19.7815 54.0137 15.5557 54.0137Z" fill="#03A3DF"/>
<g opacity="0.5">
<path d="M96.5938 59.1342L88.3959 55.0352C87.8278 54.751 87.4748 54.1799 87.4748 53.5448V51.4688C89.3938 49.7651 90.6061 47.2823 90.6061 44.5205V42.8532C90.6399 42.8532 90.6731 42.8541 90.7069 42.8541C91.5159 42.8541 92.1717 42.1983 92.1717 41.3893V38.258C92.1717 33.1338 88.0028 28.9648 82.8785 28.9648H79.7473C74.6231 28.9648 70.4541 33.1338 70.4541 38.258V41.3893C70.4541 42.1983 71.11 42.8541 71.9189 42.8541C71.9311 42.8541 71.9662 42.8537 72.0197 42.8516V44.5205C72.0197 47.2825 73.2322 49.7653 75.1512 51.469V53.545C75.1512 54.1803 74.7983 54.7514 74.2299 55.0354C73.5063 55.3971 73.2129 56.277 73.5748 57.0006C73.8315 57.5139 74.3488 57.8108 74.8861 57.8108C75.1063 57.8108 75.3297 57.761 75.54 57.6559C75.7996 57.526 76.0412 57.3727 76.2664 57.2024L79.8481 60.784V80.5308C79.8481 81.3398 80.5039 81.9956 81.3129 81.9956C82.1219 81.9956 82.7778 81.3398 82.7778 80.5308V60.7837L86.3592 57.202C86.5846 57.3725 86.826 57.5258 87.0856 57.6555L95.0182 61.6219L92.6122 64.028C91.4485 65.1919 90.8075 66.7391 90.8075 68.385V80.5304C90.8075 81.3394 91.4633 81.9952 92.2723 81.9952C93.0813 81.9952 93.7372 81.3394 93.7372 80.5304V68.385C93.7372 67.5218 94.0733 66.71 94.6838 66.0995L96.9629 63.8204C97.0321 64.0854 97.07 64.3618 97.07 64.6454V80.5304C97.07 81.3394 97.7258 81.9952 98.5348 81.9952C99.3438 81.9952 99.9997 81.3394 99.9997 80.5304V64.6454C99.9999 62.2966 98.6948 60.1848 96.5938 59.1342ZM73.3836 39.6231V38.2578C73.3836 34.749 76.2385 31.8943 79.7473 31.8943H82.8785C86.3873 31.8943 89.242 34.749 89.242 38.2578V39.885C82.8742 39.5414 79.0315 37.0635 78.9942 37.0391C78.7463 36.8738 78.4635 36.793 78.182 36.793C77.8039 36.793 77.4289 36.9391 77.1457 37.2221C75.7442 38.6237 74.3709 39.2983 73.3836 39.6231ZM81.3129 58.1053L77.9279 54.7204C78.0268 54.3426 78.0809 53.9489 78.0809 53.5448V53.2329C79.0879 53.6077 80.1768 53.8135 81.3129 53.8135C82.449 53.8135 83.5379 53.6077 84.545 53.2329V53.5448C84.545 53.9489 84.5989 54.3426 84.6979 54.7204L81.3129 58.1053ZM81.3129 50.884C77.8041 50.884 74.9494 48.0295 74.9494 44.5205V42.159C75.9754 41.749 77.1707 41.0973 78.3871 40.061C79.9254 40.8614 83.1438 42.2448 87.6764 42.7018V44.5205C87.6764 48.0293 84.8217 50.884 81.3129 50.884Z" fill="#03A3DF"/>
<path d="M73.3836 39.6231V38.2578C73.3836 34.749 76.2385 31.8943 79.7473 31.8943H82.8785C86.3873 31.8943 89.242 34.749 89.242 38.2578V39.885C82.8742 39.5414 79.0315 37.0635 78.9942 37.0391C78.7463 36.8738 78.4635 36.793 78.182 36.793C77.8039 36.793 77.4289 36.9391 77.1457 37.2221C75.7442 38.6237 74.3709 39.2983 73.3836 39.6231Z" fill="#03A3DF"/>
</g>
<path d="M96.5938 59.1342L88.3959 55.0352C87.8278 54.751 87.4748 54.1799 87.4748 53.5448V51.4688C89.3938 49.7651 90.6061 47.2823 90.6061 44.5205V42.8532C90.6399 42.8532 90.6731 42.8541 90.7069 42.8541C91.5159 42.8541 92.1717 42.1983 92.1717 41.3893V38.258C92.1717 33.1338 88.0028 28.9648 82.8785 28.9648H79.7473C74.6231 28.9648 70.4541 33.1338 70.4541 38.258V41.3893C70.4541 42.1983 71.11 42.8541 71.9189 42.8541C71.9311 42.8541 71.9662 42.8537 72.0197 42.8516V44.5205C72.0197 47.2825 73.2322 49.7653 75.1512 51.469V53.545C75.1512 54.1803 74.7983 54.7514 74.2299 55.0354C73.5063 55.3971 73.2129 56.277 73.5748 57.0006C73.8315 57.5139 74.3488 57.8108 74.8861 57.8108C75.1063 57.8108 75.3297 57.761 75.54 57.6559C75.7996 57.526 76.0412 57.3727 76.2664 57.2024L79.8481 60.784V80.5308C79.8481 81.3398 80.5039 81.9956 81.3129 81.9956C82.1219 81.9956 82.7778 81.3398 82.7778 80.5308V60.7837L86.3592 57.202C86.5846 57.3725 86.826 57.5258 87.0856 57.6555L95.0182 61.6219L92.6122 64.028C91.4485 65.1919 90.8075 66.7391 90.8075 68.385V80.5304C90.8075 81.3394 91.4633 81.9952 92.2723 81.9952C93.0813 81.9952 93.7372 81.3394 93.7372 80.5304V68.385C93.7372 67.5218 94.0733 66.71 94.6838 66.0995L96.9629 63.8204C97.0321 64.0854 97.07 64.3618 97.07 64.6454V80.5304C97.07 81.3394 97.7258 81.9952 98.5348 81.9952C99.3438 81.9952 99.9997 81.3394 99.9997 80.5304V64.6454C99.9999 62.2965 98.6948 60.1848 96.5938 59.1342ZM73.3836 39.6231V38.2578H73.3838C73.3838 34.749 76.2385 31.8943 79.7473 31.8943H82.8785C86.3873 31.8943 89.242 34.749 89.242 38.2578V39.885C82.8742 39.5414 79.0315 37.0635 78.9942 37.0391C78.7463 36.8738 78.4635 36.793 78.182 36.793C77.8039 36.793 77.4289 36.9391 77.1457 37.2221C75.7442 38.6237 74.3709 39.2983 73.3836 39.6231ZM81.3129 58.1053L77.9279 54.7204C78.0268 54.3426 78.0809 53.9489 78.0809 53.5448V53.2329C79.0879 53.6077 80.1768 53.8135 81.3129 53.8135C82.449 53.8135 83.5379 53.6077 84.545 53.2329V53.5448C84.545 53.9489 84.5989 54.3426 84.6979 54.7204L81.3129 58.1053ZM81.3129 50.884C77.8041 50.884 74.9494 48.0295 74.9494 44.5205V42.159C75.9754 41.749 77.1707 41.0973 78.3871 40.061C79.9254 40.8614 83.1438 42.2448 87.6764 42.7018V44.5205C87.6764 48.0293 84.8217 50.884 81.3129 50.884Z" fill="#03A3DF"/>
</svg>
