<svg width="100" height="100" viewBox="0 0 100 100" fill="none" xmlns="http://www.w3.org/2000/svg">
<g opacity="0.4">
<path d="M94.5801 46.8244C94.2238 45.6334 93.409 44.6327 92.3148 44.0425C91.2207 43.4523 89.937 43.3208 88.746 43.6771L46.8319 56.2175C46.5996 56.2872 46.3866 56.4099 46.2098 56.5759L41.1176 61.3611C40.9062 61.5598 40.7542 61.8134 40.6787 62.0936C40.6033 62.3738 40.6074 62.6695 40.6905 62.9475C40.7736 63.2255 40.9325 63.4749 41.1494 63.6677C41.3663 63.8605 41.6326 63.989 41.9184 64.039L48.8018 65.2414C49.0408 65.283 49.2862 65.2686 49.5186 65.1992L83.528 55.0234L83.6753 58.2412L72.8686 61.4744L73.7643 64.4685L85.7397 60.8853C86.0736 60.7855 86.3645 60.5769 86.5662 60.2928C86.7679 60.0087 86.8689 59.6652 86.853 59.3171L86.6141 54.1015L91.4331 52.6597C92.6241 52.3033 93.6247 51.4884 94.2149 50.3943C94.8051 49.3001 94.9365 48.0154 94.5801 46.8244ZM48.9766 62.0998L45.5348 61.4986L48.0809 59.1058L55.2122 56.9726L56.1079 59.9664L48.9766 62.0998ZM59.1016 59.0703L58.2059 56.0765L83.2337 48.588L83.3809 51.806L59.1016 59.0703ZM91.4649 48.9095C91.3679 49.0905 91.236 49.2504 91.0768 49.38C90.9177 49.5096 90.7344 49.6064 90.5376 49.6648L86.4671 50.8826L86.3198 47.6648L89.6419 46.6708C89.9379 46.5823 90.2536 46.5835 90.549 46.6743C90.8443 46.7652 91.1061 46.9415 91.3013 47.1812C91.4964 47.4208 91.6161 47.7129 91.6452 48.0205C91.6743 48.3282 91.6116 48.6375 91.4649 48.9095Z" fill="#03A3DF"/>
<path d="M91.4649 48.9095C91.3679 49.0905 91.236 49.2504 91.0768 49.38C90.9177 49.5096 90.7344 49.6064 90.5376 49.6648L86.4671 50.8826L86.3198 47.6648L89.6419 46.6708C89.9379 46.5823 90.2536 46.5835 90.549 46.6743C90.8443 46.7652 91.1061 46.9415 91.3013 47.1812C91.4964 47.4208 91.6161 47.7129 91.6452 48.0205C91.6743 48.3282 91.6116 48.6375 91.4649 48.9095Z" fill="#03A3DF"/>
<path d="M59.1016 59.0703L58.2059 56.0765L83.2337 48.588L83.3809 51.806L59.1016 59.0703Z" fill="#03A3DF"/>
<path d="M48.9766 62.0998L45.5348 61.4986L48.0809 59.1058L55.2122 56.9726L56.1079 59.9664L48.9766 62.0998Z" fill="#03A3DF"/>
</g>
<path d="M94.5801 46.8244C94.2238 45.6334 93.409 44.6327 92.3148 44.0425C91.2207 43.4523 89.937 43.3208 88.746 43.6771L46.8319 56.2175C46.5996 56.2872 46.3866 56.4099 46.2098 56.5759L41.1176 61.3611C40.9062 61.5598 40.7542 61.8134 40.6787 62.0936C40.6033 62.3738 40.6074 62.6695 40.6905 62.9475C40.7736 63.2255 40.9325 63.4749 41.1494 63.6677C41.3663 63.8605 41.6326 63.989 41.9184 64.039L48.8018 65.2414C49.0408 65.283 49.2862 65.2686 49.5186 65.1992L83.528 55.0234L83.6753 58.2412L72.8686 61.4744L73.7643 64.4685L85.7397 60.8853C86.0736 60.7855 86.3645 60.5769 86.5662 60.2928C86.7679 60.0087 86.8689 59.6652 86.853 59.3171L86.6141 54.1015L91.4331 52.6597C92.6241 52.3033 93.6247 51.4884 94.2149 50.3943C94.8051 49.3001 94.9365 48.0164 94.5801 46.8253V46.8244ZM48.9766 62.0998L45.5348 61.4986L48.0809 59.1058L55.2122 56.9726L56.1079 59.9664L48.9766 62.0998ZM59.1016 59.0703L58.2059 56.0765L83.2337 48.588L83.3809 51.806L59.1016 59.0703ZM91.4649 48.9095C91.3679 49.0905 91.236 49.2504 91.0768 49.38C90.9177 49.5096 90.7344 49.6064 90.5376 49.6648L86.4671 50.8826L86.3198 47.6648L89.6419 46.6708C89.9379 46.5823 90.2536 46.5835 90.549 46.6743C90.8443 46.7652 91.1061 46.9415 91.3013 47.1812C91.4964 47.4208 91.6161 47.7129 91.6452 48.0205C91.6743 48.3282 91.6116 48.6375 91.4649 48.9095Z" fill="#03A3DF"/>
<g opacity="0.3">
<path d="M62.5 68.75H35.9375V45.3125C35.9375 44.8981 35.7729 44.5007 35.4799 44.2076C35.1868 43.9146 34.7894 43.75 34.375 43.75H6.25C5.8356 43.75 5.43817 43.9146 5.14515 44.2076C4.85212 44.5007 4.6875 44.8981 4.6875 45.3125V95.3125C4.6875 95.7269 4.85212 96.1243 5.14515 96.4174C5.43817 96.7104 5.8356 96.875 6.25 96.875H62.5C62.9144 96.875 63.3118 96.7104 63.6049 96.4174C63.8979 96.1243 64.0625 95.7269 64.0625 95.3125V70.3125C64.0625 69.8981 63.8979 69.5007 63.6049 69.2076C63.3118 68.9146 62.9144 68.75 62.5 68.75ZM45.3125 71.875H51.5625V78.125H45.3125V71.875ZM17.1875 46.875H23.4375V53.125H17.1875V46.875ZM7.8125 46.875H14.0625V54.6875C14.0625 55.1019 14.2271 55.4993 14.5201 55.7924C14.8132 56.0854 15.2106 56.25 15.625 56.25H25C25.4144 56.25 25.8118 56.0854 26.1049 55.7924C26.3979 55.4993 26.5625 55.1019 26.5625 54.6875V46.875H32.8125V68.75H7.8125V46.875ZM17.1875 71.875H23.4375V78.125H17.1875V71.875ZM7.8125 71.875H14.0625V79.6875C14.0625 80.1019 14.2271 80.4993 14.5201 80.7924C14.8132 81.0854 15.2106 81.25 15.625 81.25H25C25.4144 81.25 25.8118 81.0854 26.1049 80.7924C26.3979 80.4993 26.5625 80.1019 26.5625 79.6875V71.875H32.8125V93.75H7.8125V71.875ZM60.9375 93.75H35.9375V71.875H42.1875V79.6875C42.1875 80.1019 42.3521 80.4993 42.6451 80.7924C42.9382 81.0854 43.3356 81.25 43.75 81.25H53.125C53.5394 81.25 53.9368 81.0854 54.2299 80.7924C54.5229 80.4993 54.6875 80.1019 54.6875 79.6875V71.875H60.9375V93.75Z" fill="#F2C94C"/>
<path d="M7.8125 46.875H14.0625V54.6875C14.0625 55.1019 14.2271 55.4993 14.5201 55.7924C14.8132 56.0854 15.2106 56.25 15.625 56.25H25C25.4144 56.25 25.8118 56.0854 26.1049 55.7924C26.3979 55.4993 26.5625 55.1019 26.5625 54.6875V46.875H32.8125V68.75H7.8125V46.875Z" fill="#F2C94C"/>
<path d="M7.8125 71.875H14.0625V79.6875C14.0625 80.1019 14.2271 80.4993 14.5201 80.7924C14.8132 81.0854 15.2106 81.25 15.625 81.25H25C25.4144 81.25 25.8118 81.0854 26.1049 80.7924C26.3979 80.4993 26.5625 80.1019 26.5625 79.6875V71.875H32.8125V93.75H7.8125V71.875Z" fill="#F2C94C"/>
<path d="M60.9375 93.75H35.9375V71.875H42.1875V79.6875C42.1875 80.1019 42.3521 80.4993 42.6451 80.7924C42.9382 81.0854 43.3356 81.25 43.75 81.25H53.125C53.5394 81.25 53.9368 81.0854 54.2299 80.7924C54.5229 80.4993 54.6875 80.1019 54.6875 79.6875V71.875H60.9375V93.75Z" fill="#F2C94C"/>
</g>
<path d="M62.5 68.75H35.9375V45.3125C35.9375 44.8981 35.7729 44.5007 35.4799 44.2076C35.1868 43.9146 34.7894 43.75 34.375 43.75H6.25C5.8356 43.75 5.43817 43.9146 5.14515 44.2076C4.85212 44.5007 4.6875 44.8981 4.6875 45.3125V95.3125C4.6875 95.7269 4.85212 96.1243 5.14515 96.4174C5.43817 96.7104 5.8356 96.875 6.25 96.875H62.5C62.9144 96.875 63.3118 96.7104 63.6049 96.4174C63.8979 96.1243 64.0625 95.7269 64.0625 95.3125V70.3125C64.0625 69.8981 63.8979 69.5007 63.6049 69.2076C63.3118 68.9146 62.9144 68.75 62.5 68.75ZM45.3125 71.875H51.5625V78.125H45.3125V71.875ZM17.1875 46.875H23.4375V53.125H17.1875V46.875ZM7.8125 46.875H14.0625V54.6875C14.0625 55.1019 14.2271 55.4993 14.5201 55.7924C14.8132 56.0854 15.2106 56.25 15.625 56.25H25C25.4144 56.25 25.8118 56.0854 26.1049 55.7924C26.3979 55.4993 26.5625 55.1019 26.5625 54.6875V46.875H32.8125V68.75H7.8125V46.875ZM17.1875 71.875H23.4375V78.125H17.1875V71.875ZM7.8125 71.875H14.0625V79.6875C14.0625 80.1019 14.2271 80.4993 14.5201 80.7924C14.8132 81.0854 15.2106 81.25 15.625 81.25H25C25.4144 81.25 25.8118 81.0854 26.1049 80.7924C26.3979 80.4993 26.5625 80.1019 26.5625 79.6875V71.875H32.8125V93.75H7.8125V71.875ZM60.9375 93.75H35.9375V71.875H42.1875V79.6875C42.1875 80.1019 42.3521 80.4993 42.6451 80.7924C42.9382 81.0854 43.3356 81.25 43.75 81.25H53.125C53.5394 81.25 53.9368 81.0854 54.2299 80.7924C54.5229 80.4993 54.6875 80.1019 54.6875 79.6875V71.875H60.9375V93.75Z" fill="#03A3DF"/>
<path d="M54.6875 87.5H57.8125V90.625H54.6875V87.5Z" fill="#03A3DF"/>
<path d="M26.5625 87.5H29.6875V90.625H26.5625V87.5Z" fill="#03A3DF"/>
<path d="M26.5625 62.5H29.6875V65.625H26.5625V62.5Z" fill="#03A3DF"/>
<path d="M29.6875 15.625C29.6885 14.7965 30.018 14.0022 30.6039 13.4164C31.1897 12.8305 31.984 12.501 32.8125 12.5H42.1875V15.625H34.375C33.9606 15.625 33.5632 15.7896 33.2701 16.0826C32.9771 16.3757 32.8125 16.7731 32.8125 17.1875V40.625H35.9375V18.75H73.4375V43.75H76.5625V17.1875C76.5625 16.7731 76.3979 16.3757 76.1049 16.0826C75.8118 15.7896 75.4144 15.625 75 15.625H67.1875V12.5H76.5625C77.391 12.501 78.1853 12.8305 78.7711 13.4164C79.357 14.0022 79.6865 14.7965 79.6875 15.625V42.1875H82.8125V15.625C82.8106 13.968 82.1516 12.3793 80.9799 11.2076C79.8082 10.0359 78.2195 9.37686 76.5625 9.375H61.3762L62.4533 5.06641C62.5109 4.83605 62.5152 4.59561 62.466 4.36333C62.4167 4.13106 62.3152 3.91306 62.169 3.72591C62.0229 3.53876 61.836 3.38737 61.6227 3.28325C61.4093 3.17913 61.1749 3.12501 60.9375 3.125H48.4375C48.2001 3.12501 47.9657 3.17913 47.7523 3.28325C47.539 3.38737 47.3521 3.53876 47.206 3.72591C47.0599 3.91306 46.9583 4.13106 46.909 4.36333C46.8598 4.59561 46.8641 4.83605 46.9217 5.06641L47.9988 9.375H32.8125C31.1555 9.37686 29.5668 10.0359 28.3951 11.2076C27.2234 12.3793 26.5644 13.968 26.5625 15.625V40.625H29.6875V15.625ZM45.3125 12.5H50C50.2374 12.5 50.4718 12.4459 50.6852 12.3418C50.8985 12.2376 51.0854 12.0862 51.2315 11.8991C51.3777 11.7119 51.4792 11.4939 51.5285 11.2617C51.5777 11.0294 51.5734 10.7889 51.5158 10.5586L50.4387 6.25H58.9363L57.8592 10.5586C57.8016 10.7889 57.7973 11.0294 57.8465 11.2617C57.8958 11.4939 57.9973 11.7119 58.1435 11.8991C58.2896 12.0862 58.4765 12.2376 58.6898 12.3418C58.9032 12.4459 59.1376 12.5 59.375 12.5H64.0625V15.625H45.3125V12.5Z" fill="#03A3DF"/>
<path d="M79.6875 79.6875C79.6865 80.516 79.357 81.3103 78.7711 81.8961C78.1853 82.482 77.391 82.8115 76.5625 82.8125H67.1875V85.9375H76.5625C78.2195 85.9356 79.8082 85.2766 80.9799 84.1049C82.1516 82.9332 82.8106 81.3445 82.8125 79.6875V65.625H79.6875V79.6875Z" fill="#03A3DF"/>
<path d="M76.5625 78.125V67.1875H73.4375V76.5625H67.1875V79.6875H75C75.4144 79.6875 75.8118 79.5229 76.1049 79.2299C76.3979 78.9368 76.5625 78.5394 76.5625 78.125Z" fill="#03A3DF"/>
<path d="M48.4375 23.4375C48.4375 23.0231 48.2729 22.6257 47.9799 22.3326C47.6868 22.0396 47.2894 21.875 46.875 21.875H40.625C40.2106 21.875 39.8132 22.0396 39.5201 22.3326C39.2271 22.6257 39.0625 23.0231 39.0625 23.4375V29.6875C39.0625 30.1019 39.2271 30.4993 39.5201 30.7924C39.8132 31.0854 40.2106 31.25 40.625 31.25H46.875C47.2894 31.25 47.6868 31.0854 47.9799 30.7924C48.2729 30.4993 48.4375 30.1019 48.4375 29.6875V23.4375ZM45.3125 28.125H42.1875V25H45.3125V28.125Z" fill="#03A3DF"/>
<path d="M46.875 35.9375H40.625C40.2106 35.9375 39.8132 36.1021 39.5201 36.3951C39.2271 36.6882 39.0625 37.0856 39.0625 37.5V43.75C39.0625 44.1644 39.2271 44.5618 39.5201 44.8549C39.8132 45.1479 40.2106 45.3125 40.625 45.3125H46.875C47.2894 45.3125 47.6868 45.1479 47.9799 44.8549C48.2729 44.5618 48.4375 44.1644 48.4375 43.75V37.5C48.4375 37.0856 48.2729 36.6882 47.9799 36.3951C47.6868 36.1021 47.2894 35.9375 46.875 35.9375ZM45.3125 42.1875H42.1875V39.0625H45.3125V42.1875Z" fill="#03A3DF"/>
<path d="M51.5625 21.875H54.6875V25H51.5625V21.875Z" fill="#03A3DF"/>
<path d="M51.5625 28.125H70.3125V31.25H51.5625V28.125Z" fill="#03A3DF"/>
<path d="M57.8125 21.875H70.3125V25H57.8125V21.875Z" fill="#03A3DF"/>
<path d="M51.5625 35.9375H54.6875V39.0625H51.5625V35.9375Z" fill="#03A3DF"/>
<path d="M51.5625 42.1875H70.3125V45.3125H51.5625V42.1875Z" fill="#03A3DF"/>
<path d="M57.8125 35.9375H70.3125V39.0625H57.8125V35.9375Z" fill="#03A3DF"/>
</svg>
