<svg width="16" height="20" viewBox="0 0 16 20" fill="none" xmlns="http://www.w3.org/2000/svg">
<path d="M9.85713 0.714844H2.42855C1.93601 0.714844 1.46364 0.910506 1.11536 1.25879C0.767074 1.60707 0.571411 2.07944 0.571411 2.57199V17.4291C0.571411 17.9217 0.767074 18.394 1.11536 18.7423C1.46364 19.0906 1.93601 19.2863 2.42855 19.2863H13.5714C14.064 19.2863 14.5363 19.0906 14.8846 18.7423C15.2329 18.394 15.4286 17.9217 15.4286 17.4291V6.28627M9.85713 0.714844L15.4286 6.28627M9.85713 0.714844V6.28627H15.4286M11.7143 10.9291H4.2857M11.7143 14.6434H4.2857M6.14284 7.21484H4.2857" stroke="#191919" stroke-linecap="round" stroke-linejoin="round"/>
</svg>
