<svg width="100" height="100" viewBox="0 0 100 100" fill="none" xmlns="http://www.w3.org/2000/svg">
<path d="M47.3751 5.84062V17.625H36.7564C37.8908 11.9563 42.008 7.50312 47.3751 5.84062Z" fill="#03A3DF"/>
<path d="M53.6251 5.20312V17.625H50.5001V5.20312C51.0142 5.15312 51.5345 5.125 52.0626 5.125C52.5908 5.125 53.1111 5.15312 53.6251 5.20312Z" fill="#03A3DF"/>
<path d="M65.5 17.625H56.7501V5.84062C62.1173 7.50312 64.3656 11.9563 65.5 17.625Z" fill="#03A3DF"/>
<path d="M33.3111 20.75H69V23.875H33.3126L33.3111 20.75Z" fill="#03A3DF"/>
<path d="M41.25 37.9375V27H60V37.9375C60 40.5219 57.8969 42.625 55.3125 42.625H45.9375C43.3531 42.625 41.25 40.5219 41.25 37.9375Z" fill="#03A3DF"/>
<path d="M16.4486 44.2812C17.2705 42.9844 19.3142 41.825 21.658 41.3266C22.5501 41.1375 23.3845 41.0547 24.1439 41.0547C26.3548 41.0547 25.9875 41.825 26.5 42.625L26.6531 43.1C26.6906 43.4203 26.6078 43.7734 26.3594 44.1656C25.5375 45.4625 25.4361 46.5516 23.0923 47.05C19.8673 47.7328 17.4314 47.0219 16.5267 46.0672L16.2205 45.6078C16.2017 45.5609 16.1642 45.5172 16.1517 45.4703C16.0705 45.1203 16.1705 44.7219 16.4486 44.2812Z" fill="#03A3DF"/>
<path d="M20.6642 50.4359C21.6486 50.4359 22.6845 50.3297 23.7423 50.1047C26.2533 49.5719 27.5469 48.9609 29 47.5359L31 56.5C30.3031 57.5078 30 58.6844 30 60L29.5 68L19.4001 50.3687C19.8111 50.4094 20.2314 50.4359 20.6642 50.4359Z" fill="#03A3DF"/>
<path d="M47.5783 53.5828C47.5095 53.5813 47.4439 53.5625 47.3751 53.5625H38.0001C37.9845 53.5625 37.9705 53.5672 37.9548 53.5672C40.208 52.2266 42.658 51.225 45.2158 50.6297L47.5783 53.5828Z" fill="#03A3DF"/>
<path d="M53.7251 45.75L54.6626 48.5625L51.5 54L47.5626 48.5609L48.5001 45.7484H53.7251V45.75Z" fill="#03A3DF"/>
<path d="M56.7501 78.2109C55.9189 77.4641 54.8283 77 53.6251 77V59.8125C53.6251 59.075 53.4736 58.3766 53.2376 57.7188L56.7501 53.3297V78.2109Z" fill="#03A3DF"/>
<path d="M38.0001 56.6875L41.5 56C40.9656 56.9203 39 58.675 39 59.8125L40.2251 61.375H44.2501V59.8125C44.2501 58.0891 45.6517 56.6875 47.3751 56.6875C49.0986 56.6875 49 58.0891 49 59.8125C49 61.5359 49.0986 62.9375 47.3751 62.9375H38.0001C36.2767 62.9375 34.8751 61.5359 34.8751 59.8125C34.8751 58.0891 36.2767 56.6875 38.0001 56.6875Z" fill="#03A3DF"/>
<path d="M34.8751 65.1937C35.7986 65.7312 36.8564 66.0625 38.0001 66.0625H47.3751C48.5189 66.0625 49.5767 65.7312 50.5001 65.1937V77.2031C49.747 77.4203 49.0486 77.8031 48.4798 78.3734L46.7283 80.125H41.1251C38.9376 80.125 36.7986 79.6031 34.8751 78.6484V65.1937Z" fill="#03A3DF"/>
<path d="M25.5001 75.4375C25.5001 72.5953 25.9611 69.8297 26.8689 67.1844L30.5 73.4203V75.4375C29.8188 74.8281 30.4314 75.2406 29.8751 74.5L27.3751 76.375C30.6033 80.6797 35.7439 83.25 41.1251 83.25H44V89.5H39.5626C31.808 89.5 25.5001 83.1906 25.5001 75.4375Z" fill="#03A3DF"/>
<path d="M56.7501 89.5H48.9376V82.3344L50.6892 80.5828C50.9814 80.2922 51.3829 80.125 51.7939 80.125H53.6251C54.4876 80.125 55.1876 80.8266 55.1876 81.6875V83.25H56.7501C57.6126 83.25 58.3126 83.9516 58.3126 84.8125V87.9375C58.3126 88.7984 57.6126 89.5 56.7501 89.5Z" fill="#03A3DF"/>
<path d="M42.6876 95.75H38.0001C36.2767 95.75 34.8751 94.3484 34.8751 92.625V91.9594C36.3673 92.3828 37.9361 92.625 39.5626 92.625L48.9376 92.3375C48.9376 94.0609 49.0986 95.75 47.3751 95.75H42.6876Z" fill="#03A3DF"/>
<path d="M82.0642 80.125C78.6111 80.125 75.5064 78.2062 73.9611 75.1172L72.3751 71.9437V66.0625H69.2501V95.75H59.8751V92.3375C61.6892 91.6906 63.0001 89.9719 63.0001 87.9375V84.8125C63.0001 82.7781 61.6892 81.0594 59.8751 80.4125V50.85C68.3486 53.1312 75.4533 59.1125 79.1095 67.1547L79.3455 67.6719L78.6376 73.6937L81.7408 74.0578L84.7017 48.875H89.5626V71.0656C89.5626 76.0609 87.0595 80.125 82.0642 80.125Z" fill="#03A3DF"/>
<path d="M81.7501 41.0625C81.7501 40.2016 82.4501 39.5 83.3126 39.5H84.8751V36.375C84.8751 35.5141 85.5751 34.8125 86.4376 34.8125H88.0001C88.8626 34.8125 89.5626 35.5141 89.5626 36.375V45.75H83.9595L82.2079 43.9984C81.9126 43.7031 81.7501 43.3094 81.7501 42.8922V41.0625Z" fill="#03A3DF"/>
<path d="M86.5626 31.6875H83.4376C80.8533 31.6875 78.7501 33.7906 78.7501 36.375V36.6422C76.9314 37.2875 75.6251 39.025 75.6251 41.0625V42.8922C75.6251 44.1437 76.1126 45.3219 76.9986 46.2078L78.672 47.8813L76.9876 62.1984C72.4189 54.8234 65.0439 49.4922 56.5126 47.5344L55.8142 45.4375C58.0939 44.8078 59.9642 43.1969 60.9001 41.0625H61.5626C65.0095 41.0625 67.8126 38.2594 67.8126 34.8125V27C69.5361 27 70.9376 25.5984 70.9376 23.875V20.75C70.9376 19.0266 69.5361 17.625 67.8126 17.625H67.5408C66.047 8.625 58.3486 2 49.0626 2C39.7767 2 32.0783 8.625 30.5845 17.625H30.3126C28.5892 17.625 27.1876 19.0266 27.1876 20.75V23.875C27.1876 25.5984 28.5892 27 30.3126 27V34.8125C30.3126 38.2594 33.1158 41.0625 36.5626 41.0625H37.2251C38.1626 43.1969 40.033 44.8094 42.3111 45.4375L41.6111 47.5359C38.0783 48.3453 34.7111 49.8422 31.7345 51.8953L28.6564 42.3375C28.647 42.2859 28.6486 42.2344 28.6376 42.1828C27.8533 38.8906 23.1955 37.1687 18.008 38.2687C14.7876 38.9516 12.097 40.575 10.8095 42.6078C10.0736 43.7703 9.83295 45.0078 10.1142 46.1891C10.2751 46.8672 10.608 47.475 11.0689 48.0078L21.7751 64.0438C20.2048 67.6531 19.3751 71.4734 19.3751 75.4375C19.3751 82.1 23.1939 87.8766 28.7501 90.7281V92.625C28.7501 96.0719 31.5533 98.875 35.0001 98.875H39.6876H44.3751H69.3751V78.4172C71.6501 81.4313 75.1845 83.25 79.0642 83.25C85.783 83.25 91.2501 77.7828 91.2501 71.0656V36.375C91.2501 33.7906 89.147 31.6875 86.5626 31.6875ZM78.7501 41.0625C78.7501 40.2016 79.4501 39.5 80.3126 39.5H81.8751V36.375C81.8751 35.5141 82.5751 34.8125 83.4376 34.8125H86.5626C87.4251 34.8125 88.1251 35.5141 88.1251 36.375V45.75H80.9595L79.2079 43.9984C78.9126 43.7031 78.7501 43.3094 78.7501 42.8922V41.0625ZM53.7501 92.625V95.75H49.7564C50.2939 94.8266 50.6251 93.7687 50.6251 92.625H53.7501ZM55.3126 89.5H45.9376V82.3344L47.6892 80.5828C47.9814 80.2922 48.3829 80.125 48.7939 80.125H50.6251C51.4876 80.125 52.1876 80.8266 52.1876 81.6875V83.25H55.3126C56.1751 83.25 56.8751 83.9516 56.8751 84.8125V87.9375C56.8751 88.7984 56.1751 89.5 55.3126 89.5ZM52.6236 45.75L53.5611 48.5625L49.0626 54.1859L44.5626 48.5609L45.5001 45.7484H52.6236V45.75ZM44.5783 53.5828C44.5095 53.5813 44.4439 53.5625 44.3751 53.5625H35.0001C34.9845 53.5625 34.9705 53.5672 34.9548 53.5672C37.208 52.2266 39.658 51.225 42.2158 50.6297L44.5783 53.5828ZM35.0001 56.6875H38.9642C38.4298 57.6078 38.1251 58.675 38.1251 59.8125V61.375H41.2501V59.8125C41.2501 58.0891 42.6517 56.6875 44.3751 56.6875C46.0986 56.6875 47.5001 58.0891 47.5001 59.8125C47.5001 61.5359 46.0986 62.9375 44.3751 62.9375H35.0001C33.2767 62.9375 31.8751 61.5359 31.8751 59.8125C31.8751 58.0891 33.2767 56.6875 35.0001 56.6875ZM31.8751 65.1937C32.7986 65.7312 33.8564 66.0625 35.0001 66.0625H44.3751C45.5189 66.0625 46.5767 65.7312 47.5001 65.1937V77.2031C46.747 77.4203 46.0486 77.8031 45.4798 78.3734L43.7283 80.125H38.1251C35.9376 80.125 33.7986 79.6031 31.8751 78.6484V65.1937ZM53.7501 78.2109C52.9189 77.4641 51.8283 77 50.6251 77V59.8125C50.6251 59.075 50.4736 58.3766 50.2376 57.7188L53.7501 53.3297V78.2109ZM61.5626 37.9375V31.6875C63.2861 31.6875 64.6876 33.0891 64.6876 34.8125C64.6876 36.5359 63.2861 37.9375 61.5626 37.9375ZM64.6876 29.4312C63.7642 28.8937 62.7064 28.5625 61.5626 28.5625V27H64.6876V29.4312ZM64.3689 17.625H53.7501V5.84062C59.1173 7.50312 63.2345 11.9563 64.3689 17.625ZM50.6251 5.20312V17.625H47.5001V5.20312C48.0142 5.15312 48.5345 5.125 49.0626 5.125C49.5908 5.125 50.1111 5.15312 50.6251 5.20312ZM44.3751 5.84062V17.625H33.7564C34.8908 11.9563 39.008 7.50312 44.3751 5.84062ZM30.3111 20.75H67.8126V23.875H30.3126L30.3111 20.75ZM36.5626 27V28.5625C35.4189 28.5625 34.3611 28.8937 33.4376 29.4312V27H36.5626ZM33.4376 34.8125C33.4376 33.0891 34.8392 31.6875 36.5626 31.6875V37.9375C34.8392 37.9375 33.4376 36.5359 33.4376 34.8125ZM39.6876 37.9375V27H58.4376V37.9375C58.4376 40.5219 56.3345 42.625 53.7501 42.625H44.3751C41.7908 42.625 39.6876 40.5219 39.6876 37.9375ZM13.4486 44.2812C14.2705 42.9844 16.3142 41.825 18.658 41.3266C19.5501 41.1375 20.3845 41.0547 21.1439 41.0547C23.3548 41.0547 24.9298 41.7547 25.4423 42.5547L25.5955 43.0297C25.633 43.35 25.5501 43.7031 25.3017 44.0953C24.4798 45.3922 22.4361 46.5516 20.0923 47.05C16.8673 47.7328 14.4314 47.0219 13.5267 46.0672L13.2205 45.6078C13.2017 45.5609 13.1642 45.5172 13.1517 45.4703C13.0705 45.1203 13.1705 44.7219 13.4486 44.2812ZM17.6642 50.4359C18.6486 50.4359 19.6845 50.3297 20.7423 50.1047C23.2533 49.5719 25.433 48.4641 26.8861 47.0391L29.8595 56.2719C29.1626 57.2797 28.7501 58.4969 28.7501 59.8125V68.8656L16.4001 50.3687C16.8111 50.4094 17.2314 50.4359 17.6642 50.4359ZM22.5001 75.4375C22.5001 72.5953 22.9611 69.8297 23.8689 67.1844L28.7501 74.4953V76.5125C28.0689 75.9031 27.4314 75.2406 26.8751 74.5L24.3751 76.375C27.6033 80.6797 32.7439 83.25 38.1251 83.25H42.8126V89.5H36.5626C28.808 89.5 22.5001 83.1906 22.5001 75.4375ZM39.6876 95.75H35.0001C33.2767 95.75 31.8751 94.3484 31.8751 92.625V91.9594C33.3673 92.3828 34.9361 92.625 36.5626 92.625H47.5001C47.5001 94.3484 46.0986 95.75 44.3751 95.75H39.6876ZM79.0642 80.125C75.6111 80.125 72.5064 78.2062 70.9611 75.1172L69.3751 71.9437V66.0625H66.2501V95.75H56.8751V92.3375C58.6892 91.6906 60.0001 89.9719 60.0001 87.9375V84.8125C60.0001 82.7781 58.6892 81.0594 56.8751 80.4125V50.85C65.3486 53.1312 72.4533 59.1125 76.1095 67.1547L76.3455 67.6719L75.6376 73.6937L78.7408 74.0578L81.7017 48.875H88.1251V71.0656C88.1251 76.0609 84.0595 80.125 79.0642 80.125Z" fill="#191919"/>
</svg>
