<svg width="100" height="100" viewBox="0 0 100 100" fill="none" xmlns="http://www.w3.org/2000/svg">
<path d="M50 48.4375C49.1391 48.4375 48.4375 47.7375 48.4375 46.875H45.3125C45.3125 48.9094 46.6234 50.6281 48.4375 51.275V54.6875H51.5625V51.275C53.3766 50.6281 54.6875 48.9094 54.6875 46.875C54.6875 44.2906 52.5844 42.1875 50 42.1875C49.1391 42.1875 48.4375 41.4875 48.4375 40.625C48.4375 39.7625 49.1391 39.0625 50 39.0625C50.8609 39.0625 51.5625 39.7625 51.5625 40.625H54.6875C54.6875 38.5906 53.3766 36.8719 51.5625 36.225V32.8125H48.4375V36.225C46.6234 36.8719 45.3125 38.5906 45.3125 40.625C45.3125 43.2094 47.4156 45.3125 50 45.3125C50.8609 45.3125 51.5625 46.0125 51.5625 46.875C51.5625 47.7375 50.8609 48.4375 50 48.4375Z" fill="#03A3DF"/>
<path d="M88.4188 49.1797C87.4313 43.7953 85.2828 38.6141 82.1625 34.0891L83.9422 30.5297L75.7203 22.3078L72.1609 24.0891C70.1031 22.6672 67.9078 21.4609 65.625 20.4609V17.1859H68.75V13.2469L53.7391 2.7375C51.5359 1.19687 48.4656 1.19687 46.2625 2.7375L31.25 13.2469V17.1859H34.375V20.4594C32.0922 21.4578 29.8969 22.6656 27.8391 24.0875L24.2797 22.3063L16.0578 30.5281L17.8375 34.0875C14.7156 38.6125 12.5672 43.7938 11.5797 49.1781L7.8125 50.4344V62.0609L11.5813 63.3172C12.5688 68.7016 14.7172 73.8828 17.8391 78.4078L16.0594 81.9672L24.2812 90.1891L27.8406 88.4078C32.3672 91.5313 37.5484 93.6797 42.9313 94.6672L44.1859 98.4359H55.8125L57.0687 94.6688C62.4516 93.6813 67.6328 91.5328 72.1594 88.4094L75.7188 90.1906L83.9406 81.9688L82.1609 78.4094C85.2828 73.8844 87.4313 68.7031 88.4172 63.3188L92.1875 62.0625V50.4359L88.4188 49.1797ZM36.7516 32.8109C35.2563 34.6203 34.1359 36.7438 33.4781 39.0609H25.7656C28.0281 35.8734 30.9406 33.1328 34.375 31.0125V32.8109H36.7516ZM53.125 26.8594C52.1094 26.6719 51.0687 26.5609 50 26.5609C48.9313 26.5609 47.8906 26.6719 46.875 26.8594V23.4359H53.125V26.8594ZM50 29.6859C57.7531 29.6859 64.0625 35.9938 64.0625 43.7484C64.0625 51.5031 57.7531 57.8109 50 57.8109C42.2469 57.8109 35.9375 51.5031 35.9375 43.7484C35.9375 35.9938 42.2469 29.6859 50 29.6859ZM59.375 73.4359H51.6734C52.4344 68.1422 56.9984 64.0609 62.5 64.0609H70.2016C69.4406 69.3547 64.8766 73.4359 59.375 73.4359ZM32.9234 67.1859H37.5C43.0016 67.1859 47.5656 71.2672 48.3266 76.5609H43.75C38.2484 76.5609 33.6844 72.4797 32.9234 67.1859ZM48.4375 79.6859V85.4156C47.0516 84.5391 45.6672 82.5469 44.4625 79.6859H48.4375ZM51.5625 85.4172V79.6859V78.1234V76.5609H56.6719C55.2656 81.0453 53.4156 84.2313 51.5625 85.4172ZM49.2297 70.3859C47.3422 67.5328 44.4406 65.4172 41.0438 64.5313C40.8406 62.4578 40.7234 60.3297 40.6766 58.1672C43.3656 59.9109 46.5625 60.9359 50 60.9359C53.4453 60.9359 56.6484 59.9078 59.3406 58.1563C59.3172 59.2266 59.275 60.2859 59.2141 61.3406C54.55 62.4625 50.7922 65.9078 49.2297 70.3859ZM23.8359 42.1859H32.8922C32.8453 42.7016 32.8125 43.2203 32.8125 43.7484C32.8125 47.9 34.2922 51.7125 36.7516 54.6859H20.3672C20.5969 50.2281 21.8 45.9781 23.8359 42.1859ZM37.5422 57.8109C37.5781 59.9375 37.6906 62.0297 37.8734 64.0797C37.7484 64.0766 37.6266 64.0609 37.5 64.0609H29.6875V65.6234C29.6875 67.2688 29.9859 68.8422 30.5078 70.3109H23.8641C21.8359 66.5563 20.6281 62.3109 20.3922 57.8109H37.5422ZM32.0656 73.4359C34.1047 76.4766 37.2969 78.6781 41.0125 79.4141C41.9 81.8203 42.9188 83.8047 44.0406 85.3344C36.5641 83.8047 30.1234 79.4406 25.8391 73.4359H32.0656ZM59.9437 76.5328C63.0594 76.4078 65.9188 75.275 68.1938 73.4359H74.1609C69.8891 79.4234 63.4719 83.7781 56.0234 85.3188C57.5438 83.2203 58.8703 80.2656 59.9437 76.5328ZM76.1359 70.3109H71.0594C72.5594 68.075 73.4375 65.3875 73.4375 62.4984V60.9359H62.5C62.4547 60.9359 62.4109 60.9422 62.3656 60.9422C62.4188 59.9031 62.4547 58.8609 62.4734 57.8109H79.6094C79.3719 62.3109 78.1641 66.5563 76.1359 70.3109ZM63.2484 54.6859C65.7078 51.7125 67.1875 47.9 67.1875 43.7484C67.1875 43.2203 67.1547 42.7016 67.1078 42.1859H76.1641C78.1984 45.9781 79.4016 50.2281 79.6328 54.6859H63.2484ZM66.5219 39.0609C65.8641 36.7438 64.7437 34.6203 63.2484 32.8109H65.625V31.0109C69.0578 33.1328 71.9703 35.8734 74.2344 39.0609H66.5219ZM48.0531 5.3C49.2 4.49688 50.8 4.49688 51.9469 5.3L64.4625 14.0609H35.5375L48.0531 5.3ZM62.5 17.1859V29.6859H59.8516C58.7406 28.9047 57.5328 28.2578 56.25 27.7547V20.3109H43.75V27.7547C42.4672 28.2578 41.2609 28.9047 40.1484 29.6859H37.5V17.1859H62.5ZM89.0625 59.8094L85.6422 60.95L85.4938 61.8891C84.6188 67.4375 82.4016 72.7844 79.0813 77.3516L78.5234 78.1188L80.1391 81.3516L75.1031 86.3875L71.8703 84.7719L71.1031 85.3297C66.5359 88.65 61.1891 90.8688 55.6406 91.7422L54.7016 91.8906L53.5609 95.3109H46.4375L45.2969 91.8906L44.3578 91.7422C38.8109 90.8688 33.4641 88.65 28.8953 85.3297L28.1266 84.7719L24.8953 86.3875L19.8594 81.3516L21.475 78.1188L20.9172 77.3516C17.5969 72.7844 15.3797 67.4375 14.5047 61.8891L14.3578 60.9516L10.9375 59.8094V52.6859L14.3578 51.5453L14.5063 50.6063C15.3813 45.0578 17.5984 39.7109 20.9187 35.1438L21.4766 34.3766L19.8609 31.1438L24.8969 26.1078L28.1281 27.7234L28.8969 27.1656C30.625 25.9109 32.4609 24.8156 34.375 23.8891V27.4094C23.7563 33.1641 17.1875 44.1156 17.1875 56.2484C17.1875 74.3406 31.9062 89.0609 50 89.0609C68.0938 89.0609 82.8125 74.3406 82.8125 56.2484C82.8125 44.1156 76.2453 33.1641 65.625 27.4094V23.8891C67.5391 24.8172 69.3766 25.9109 71.1031 27.1672L71.8703 27.725L75.1031 26.1094L80.1391 31.1453L78.5234 34.3781L79.0813 35.1453C82.4016 39.7125 84.6188 45.0594 85.4938 50.6078L85.6422 51.5469L89.0625 52.6875V59.8094Z" fill="#03A3DF"/>
<path d="M48.0531 5.3C49.2 4.49688 50.8 4.49688 51.9469 5.3L64.4625 14.0609H35.5375L48.0531 5.3Z" fill="#03A3DF"/>
<path d="M89.0625 59.8094L85.6422 60.95L85.4938 61.8891C84.6188 67.4375 82.4016 72.7844 79.0813 77.3516L78.5234 78.1188L80.1391 81.3516L75.1031 86.3875L71.8703 84.7719L71.1031 85.3297C66.5359 88.65 61.1891 90.8688 55.6406 91.7422L54.7016 91.8906L53.5609 95.3109H46.4375L45.2969 91.8906L44.3578 91.7422C38.8109 90.8688 33.4641 88.65 28.8953 85.3297L28.1266 84.7719L24.8953 86.3875L19.8594 81.3516L21.475 78.1188L20.9172 77.3516C17.5969 72.7844 15.3797 67.4375 14.5047 61.8891L14.3578 60.9516L10.9375 59.8094V52.6859L14.3578 51.5453L14.5063 50.6063C15.3813 45.0578 17.5984 39.7109 20.9187 35.1438L21.4766 34.3766L19.8609 31.1438L24.8969 26.1078L28.1281 27.7234L28.8969 27.1656C30.625 25.9109 32.4609 24.8156 34.375 23.8891V27.4094C23.7563 33.1641 17.1875 44.1156 17.1875 56.2484C17.1875 74.3406 31.9062 89.0609 50 89.0609C68.0938 89.0609 82.8125 74.3406 82.8125 56.2484C82.8125 44.1156 76.2453 33.1641 65.625 27.4094V23.8891C67.5391 24.8172 69.3766 25.9109 71.1031 27.1672L71.8703 27.725L75.1031 26.1094L80.1391 31.1453L78.5234 34.3781L79.0813 35.1453C82.4016 39.7125 84.6188 45.0594 85.4938 50.6078L85.6422 51.5469L89.0625 52.6875V59.8094Z" fill="#03A3DF"/>
<path d="M59.375 73.4359H51.6734C52.4344 68.1422 56.9984 64.0609 62.5 64.0609H70.2016C69.4406 69.3547 64.8766 73.4359 59.375 73.4359Z" fill="#03A3DF"/>
<path d="M51.5625 85.4172V79.6859V78.1234V76.5609H56.6719C55.2656 81.0453 53.4156 84.2313 51.5625 85.4172Z" fill="#03A3DF"/>
<path d="M48.4375 79.6859V85.4156C47.0516 84.5391 45.6672 82.5469 44.4625 79.6859H48.4375Z" fill="#03A3DF"/>
<path d="M32.9234 67.1859H37.5C43.0016 67.1859 47.5656 71.2672 48.3266 76.5609H43.75C38.2484 76.5609 33.6844 72.4797 32.9234 67.1859Z" fill="#03A3DF"/>
<path d="M88.4188 49.1797C87.4313 43.7953 85.2828 38.6141 82.1625 34.0891L83.9422 30.5297L75.7203 22.3078L72.1609 24.0891C70.1031 22.6672 67.9078 21.4609 65.625 20.4609V17.1859H68.75V13.2469L53.7391 2.7375C51.5359 1.19687 48.4656 1.19687 46.2625 2.7375L31.25 13.2469V17.1859H34.375V20.4594C32.0922 21.4578 29.8969 22.6656 27.8391 24.0875L24.2797 22.3063L16.0578 30.5281L17.8375 34.0875C14.7156 38.6125 12.5672 43.7938 11.5797 49.1781L7.8125 50.4344V62.0609L11.5813 63.3172C12.5688 68.7016 14.7172 73.8828 17.8391 78.4078L16.0594 81.9672L24.2812 90.1891L27.8406 88.4078C32.3672 91.5313 37.5484 93.6797 42.9313 94.6672L44.1859 98.4359H55.8125L57.0687 94.6688C62.4516 93.6813 67.6328 91.5328 72.1594 88.4094L75.7188 90.1906L83.9406 81.9688L82.1609 78.4094C85.2828 73.8844 87.4313 68.7031 88.4172 63.3188L92.1875 62.0625V50.4359L88.4188 49.1797ZM36.7516 32.8109C35.2563 34.6203 34.1359 36.7438 33.4781 39.0609H25.7656C28.0281 35.8734 30.9406 33.1328 34.375 31.0125V32.8109H36.7516ZM53.125 26.8594C52.1094 26.6719 51.0687 26.5609 50 26.5609C48.9313 26.5609 47.8906 26.6719 46.875 26.8594V23.4359H53.125V26.8594ZM50 29.6859C57.7531 29.6859 64.0625 35.9938 64.0625 43.7484C64.0625 51.5031 57.7531 57.8109 50 57.8109C42.2469 57.8109 35.9375 51.5031 35.9375 43.7484C35.9375 35.9938 42.2469 29.6859 50 29.6859ZM59.375 73.4359H51.6734C52.4344 68.1422 56.9984 64.0609 62.5 64.0609H70.2016C69.4406 69.3547 64.8766 73.4359 59.375 73.4359ZM32.9234 67.1859H37.5C43.0016 67.1859 47.5656 71.2672 48.3266 76.5609H43.75C38.2484 76.5609 33.6844 72.4797 32.9234 67.1859ZM48.4375 79.6859V85.4156C47.0516 84.5391 45.6672 82.5469 44.4625 79.6859H48.4375ZM51.5625 85.4172V79.6859V78.1234V76.5609H56.6719C55.2656 81.0453 53.4156 84.2313 51.5625 85.4172ZM49.2297 70.3859C47.3422 67.5328 44.4406 65.4172 41.0438 64.5313C40.8406 62.4578 40.7234 60.3297 40.6766 58.1672C43.3656 59.9109 46.5625 60.9359 50 60.9359C53.4453 60.9359 56.6484 59.9078 59.3406 58.1563C59.3172 59.2266 59.275 60.2859 59.2141 61.3406C54.55 62.4625 50.7922 65.9078 49.2297 70.3859ZM23.8359 42.1859H32.8922C32.8453 42.7016 32.8125 43.2203 32.8125 43.7484C32.8125 47.9 34.2922 51.7125 36.7516 54.6859H20.3672C20.5969 50.2281 21.8 45.9781 23.8359 42.1859ZM37.5422 57.8109C37.5781 59.9375 37.6906 62.0297 37.8734 64.0797C37.7484 64.0766 37.6266 64.0609 37.5 64.0609H29.6875V65.6234C29.6875 67.2688 29.9859 68.8422 30.5078 70.3109H23.8641C21.8359 66.5563 20.6281 62.3109 20.3922 57.8109H37.5422ZM32.0656 73.4359C34.1047 76.4766 37.2969 78.6781 41.0125 79.4141C41.9 81.8203 42.9188 83.8047 44.0406 85.3344C36.5641 83.8047 30.1234 79.4406 25.8391 73.4359H32.0656ZM59.9437 76.5328C63.0594 76.4078 65.9188 75.275 68.1938 73.4359H74.1609C69.8891 79.4234 63.4719 83.7781 56.0234 85.3188C57.5438 83.2203 58.8703 80.2656 59.9437 76.5328ZM76.1359 70.3109H71.0594C72.5594 68.075 73.4375 65.3875 73.4375 62.4984V60.9359H62.5C62.4547 60.9359 62.4109 60.9422 62.3656 60.9422C62.4188 59.9031 62.4547 58.8609 62.4734 57.8109H79.6094C79.3719 62.3109 78.1641 66.5563 76.1359 70.3109ZM63.2484 54.6859C65.7078 51.7125 67.1875 47.9 67.1875 43.7484C67.1875 43.2203 67.1547 42.7016 67.1078 42.1859H76.1641C78.1984 45.9781 79.4016 50.2281 79.6328 54.6859H63.2484ZM66.5219 39.0609C65.8641 36.7438 64.7438 34.6203 63.2484 32.8109H65.625V31.0109C69.0578 33.1328 71.9703 35.8734 74.2344 39.0609H66.5219ZM48.0531 5.3C49.2 4.49688 50.8 4.49688 51.9469 5.3L64.4625 14.0609H35.5375L48.0531 5.3ZM62.5 17.1859V29.6859H59.8516C58.7406 28.9047 57.5328 28.2578 56.25 27.7547V20.3109H43.75V27.7547C42.4672 28.2578 41.2609 28.9047 40.1484 29.6859H37.5V17.1859H62.5ZM89.0625 59.8094L85.6422 60.95L85.4938 61.8891C84.6188 67.4375 82.4016 72.7844 79.0813 77.3516L78.5234 78.1188L80.1391 81.3516L75.1031 86.3875L71.8703 84.7719L71.1031 85.3297C66.5359 88.65 61.1891 90.8688 55.6406 91.7422L54.7016 91.8906L53.5609 95.3109H46.4375L45.2969 91.8906L44.3578 91.7422C38.8109 90.8688 33.4641 88.65 28.8953 85.3297L28.1266 84.7719L24.8953 86.3875L19.8594 81.3516L21.475 78.1188L20.9172 77.3516C17.5969 72.7844 15.3797 67.4375 14.5047 61.8891L14.3578 60.9516L10.9375 59.8094V52.6859L14.3578 51.5453L14.5063 50.6063C15.3813 45.0578 17.5984 39.7109 20.9187 35.1438L21.4766 34.3766L19.8609 31.1438L24.8969 26.1078L28.1281 27.7234L28.8969 27.1656C30.625 25.9109 32.4609 24.8156 34.375 23.8891V27.4094C23.7563 33.1641 17.1875 44.1156 17.1875 56.2484C17.1875 74.3406 31.9062 89.0609 50 89.0609C68.0938 89.0609 82.8125 74.3406 82.8125 56.2484C82.8125 44.1156 76.2453 33.1641 65.625 27.4094V23.8891C67.5391 24.8172 69.3766 25.9109 71.1031 27.1672L71.8703 27.725L75.1031 26.1094L80.1391 31.1453L78.5234 34.3781L79.0813 35.1453C82.4016 39.7125 84.6188 45.0594 85.4938 50.6078L85.6422 51.5469L89.0625 52.6875V59.8094Z" fill="#191919"/>
</svg>
