<svg width="100" height="100" viewBox="0 0 100 100" fill="none" xmlns="http://www.w3.org/2000/svg">
<path d="M90.7407 56.4634C86.146 49.6914 78.4932 45.6385 70.3106 45.6436C62.2694 45.6494 54.7367 49.5786 50.1295 56.1702C49.7971 55.6825 49.4532 55.202 49.0875 54.7433L30.7146 31.6753C30.1716 31.0481 29.223 30.9797 28.5957 31.5227C28.5413 31.5699 28.4903 31.6209 28.4432 31.6753L10.0705 54.7433C6.79534 58.8692 5.01012 63.9806 5.00413 69.2487V69.6638C4.77393 82.4075 14.1917 93.2726 26.8368 94.8511C35.9133 95.8538 44.7981 91.7435 49.9118 84.1764C57.563 95.4533 72.9053 98.3913 84.1799 90.7385C95.4545 83.0858 98.3919 67.7403 90.7407 56.4634ZM48.2646 81.3328C43.9402 88.7319 35.6693 92.895 27.1517 91.9596C15.9823 90.5395 7.6817 80.9231 7.90664 69.6638V69.2487C7.91081 64.6373 9.47382 60.1627 12.3417 56.552L29.5797 34.9021L46.8177 56.552C47.414 57.3102 47.9562 58.1097 48.4402 58.9441C44.7685 65.9404 44.7032 74.2799 48.2646 81.3328ZM70.3106 92.0932C58.2881 92.0932 48.5418 82.3449 48.5418 70.3199C48.5418 58.2949 58.2881 48.5467 70.3106 48.5467C82.3332 48.5467 92.0795 58.2949 92.0795 70.3199C92.0658 82.3393 82.3276 92.0796 70.3106 92.0932Z" fill="#191919"/>
<path d="M70.3107 51.4492C59.891 51.4492 51.4443 59.8976 51.4443 70.3194C51.4443 80.7411 59.891 89.1895 70.3107 89.1895C80.7303 89.1895 89.177 80.7411 89.177 70.3194C89.165 59.9027 80.7252 51.4612 70.3107 51.4492ZM70.3107 86.2864C61.4941 86.2864 54.3468 79.1377 54.3468 70.3194C54.3468 61.501 61.4941 54.3523 70.3107 54.3523C79.1272 54.3523 86.2745 61.501 86.2745 70.3194C86.2639 79.1335 79.1229 86.2761 70.3107 86.2864Z" fill="#191919"/>
<path d="M67.4085 63.0601H73.2136C74.8167 63.0601 76.1161 64.3598 76.1161 65.9632H79.0186C79.0186 62.7565 76.4196 60.157 73.2136 60.157H71.7623V57.2539H68.8598V60.157H67.4085C64.2025 60.157 61.6035 62.7565 61.6035 65.9632C61.6035 69.1699 64.2025 71.7694 67.4085 71.7694H73.2136C74.8167 71.7694 76.1161 73.0691 76.1161 74.6725C76.1161 76.2759 74.8167 77.5756 73.2136 77.5756H67.4085C65.8054 77.5756 64.506 76.2759 64.506 74.6725H61.6035C61.6035 77.8792 64.2025 80.4787 67.4085 80.4787H68.8598V83.3818H71.7623V80.4787H73.2136C76.4196 80.4787 79.0186 77.8792 79.0186 74.6725C79.0186 71.4658 76.4196 68.8663 73.2136 68.8663H67.4085C65.8054 68.8663 64.506 67.5666 64.506 65.9632C64.506 64.3598 65.8054 63.0601 67.4085 63.0601Z" fill="#03A3DF"/>
<path d="M26.7728 63.0601H32.5778C34.1809 63.0601 35.4803 64.3598 35.4803 65.9632H38.3828C38.3828 62.7565 35.7838 60.157 32.5778 60.157H31.1266V57.2539H28.2241V60.157H26.7728C23.5668 60.157 20.9678 62.7565 20.9678 65.9632C20.9678 69.1699 23.5668 71.7694 26.7728 71.7694H32.5778C34.1809 71.7694 35.4803 73.0691 35.4803 74.6725C35.4803 76.2759 34.1809 77.5756 32.5778 77.5756H26.7728C25.1697 77.5756 23.8703 76.2759 23.8703 74.6725H20.9678C20.9678 77.8792 23.5668 80.4787 26.7728 80.4787H28.2241V83.3818H31.1266V80.4787H32.5778C35.7838 80.4787 38.3828 77.8792 38.3828 74.6725C38.3828 71.4658 35.7838 68.8663 32.5778 68.8663H26.7728C25.1697 68.8663 23.8703 67.5666 23.8703 65.9632C23.8703 64.3598 25.1697 63.0601 26.7728 63.0601Z" fill="#03A3DF"/>
<path d="M58.7003 42.7403H93.5304C94.3319 42.7403 94.9817 42.0904 94.9817 41.2887V6.45155C94.9817 5.64993 94.3319 5 93.5304 5H76.1153C75.3139 5 74.6641 5.64993 74.6641 6.45155V22.4186H58.7003C57.8988 22.4186 57.249 23.0685 57.249 23.8701V41.2887C57.249 42.0905 57.8986 42.7403 58.7003 42.7403ZM77.5666 7.9031H92.0792V10.8062H77.5666V7.9031ZM77.5666 13.7093H92.0792V16.6124H77.5666V13.7093ZM77.5666 19.5155H92.0792V22.4186H77.5666V19.5155ZM77.5666 25.3217H92.0792V28.2248H77.5666V25.3217ZM77.5666 31.1279H92.0792V34.031H77.5666V31.1279ZM77.5666 36.9341H92.0792V39.8372H77.5666V36.9341ZM60.1515 25.3217H74.6641V28.2248H60.1515V25.3217ZM60.1515 31.1279H74.6641V34.031H60.1515V31.1279ZM60.1515 36.9341H74.6641V39.8372H60.1515V36.9341Z" fill="#03A3DF"/>
<path d="M77.5666 7.9031H92.0792V10.8062H77.5666V7.9031Z" fill="#03A3DF"/>
<path d="M77.5666 13.7093H92.0792V16.6124H77.5666V13.7093Z" fill="#03A3DF"/>
<path d="M77.5666 19.5155H92.0792V22.4186H77.5666V19.5155Z" fill="#03A3DF"/>
<path d="M77.5666 25.3217H92.0792V28.2248H77.5666V25.3217Z" fill="#03A3DF"/>
<path d="M77.5666 31.1279H92.0792V34.031H77.5666V31.1279Z" fill="#03A3DF"/>
<path d="M77.5666 36.9341H92.0792V39.8372H77.5666V36.9341Z" fill="#03A3DF"/>
<path d="M60.1515 36.9341H74.6641V39.8372H60.1515V36.9341Z" fill="#03A3DF"/>
<path d="M60.1515 31.1279H74.6641V34.031H60.1515V31.1279Z" fill="#03A3DF"/>
<path d="M60.1515 25.3217H74.6641V28.2248H60.1515V25.3217Z" fill="#03A3DF"/>
<path d="M58.7003 42.7403H93.5304C94.3319 42.7403 94.9817 42.0904 94.9817 41.2887V6.45155C94.9817 5.64993 94.3319 5 93.5304 5H76.1153C75.3139 5 74.6641 5.64993 74.6641 6.45155V22.4186H58.7003C57.8988 22.4186 57.249 23.0685 57.249 23.8701V41.2887C57.249 42.0905 57.8986 42.7403 58.7003 42.7403ZM77.5666 7.9031H92.0792V10.8062H77.5666V7.9031ZM77.5666 13.7093H92.0792V16.6124H77.5666V13.7093ZM77.5666 19.5155H92.0792V22.4186H77.5666V19.5155ZM77.5666 25.3217H92.0792V28.2248H77.5666V25.3217ZM77.5666 31.1279H92.0792V34.031H77.5666V31.1279ZM77.5666 36.9341H92.0792V39.8372H77.5666V36.9341ZM60.1515 25.3217H74.6641V28.2248H60.1515V25.3217ZM60.1515 31.1279H74.6641V34.031H60.1515V31.1279ZM60.1515 36.9341H74.6641V39.8372H60.1515V36.9341Z" fill="#191919"/>
<path d="M18.0657 29.6747C20.6589 29.6998 23.0841 28.3936 24.4904 26.2142C25.6737 24.3051 25.5859 21.8699 24.2683 20.051L19.2542 12.8759C18.7458 12.2193 17.8014 12.0994 17.1448 12.6081C17.0447 12.6858 16.9547 12.7758 16.8771 12.8759L11.863 20.051C10.5454 21.8699 10.4576 24.3051 11.641 26.2142C13.0472 28.3937 15.4724 29.7 18.0657 29.6747ZM14.2402 21.7159L18.0657 16.2406L21.8912 21.7159C22.5319 22.5736 22.5919 23.733 22.0436 24.6524C20.5707 26.8497 17.5956 27.4368 15.3988 25.9637C14.8805 25.6162 14.4352 25.1708 14.0878 24.6524C13.5392 23.733 13.5994 22.5736 14.2402 21.7159Z" fill="#191919"/>
<path d="M41.2854 29.6747C43.8786 29.6998 46.3038 28.3936 47.7101 26.2142C48.8934 24.3051 48.8056 21.8699 47.4881 20.051L42.474 12.8759C41.9655 12.2193 41.0211 12.0994 40.3646 12.6081C40.2644 12.6858 40.1745 12.7758 40.0968 12.8759L35.0827 20.051C33.7652 21.8699 33.6774 24.3051 34.8607 26.2142C36.2669 28.3937 38.6922 29.7 41.2854 29.6747ZM37.4599 21.7159L41.2854 16.2406L45.1109 21.7159C45.7516 22.5736 45.8117 23.733 45.2633 24.6524C43.7904 26.8497 40.8154 27.4368 38.6185 25.9637C38.1002 25.6162 37.6549 25.1708 37.3075 24.6524C36.7589 23.733 36.8191 22.5736 37.4599 21.7159Z" fill="#191919"/>
</svg>
