<svg width="26" height="26" viewBox="0 0 26 26" fill="none" xmlns="http://www.w3.org/2000/svg">
<path d="M16.7139 9.28627C18.1915 9.28627 19.6086 9.87326 20.6535 10.9181C21.6983 11.963 22.2853 13.3801 22.2853 14.8577V21.3577H18.571V14.8577C18.571 14.3652 18.3753 13.8928 18.0271 13.5445C17.6788 13.1962 17.2064 13.0006 16.7139 13.0006C16.2213 13.0006 15.749 13.1962 15.4007 13.5445C15.0524 13.8928 14.8567 14.3652 14.8567 14.8577V21.3577H11.1424V14.8577C11.1424 13.3801 11.7294 11.963 12.7743 10.9181C13.8191 9.87326 15.2362 9.28627 16.7139 9.28627Z" stroke="#191919" stroke-linecap="round" stroke-linejoin="round"/>
<path d="M7.42815 10.2148H3.71387V21.3577H7.42815V10.2148Z" stroke="#191919" stroke-linecap="round" stroke-linejoin="round"/>
<path d="M5.57101 7.42913C6.59668 7.42913 7.42815 6.59766 7.42815 5.57199C7.42815 4.54631 6.59668 3.71484 5.57101 3.71484C4.54534 3.71484 3.71387 4.54631 3.71387 5.57199C3.71387 6.59766 4.54534 7.42913 5.57101 7.42913Z" stroke="#191919" stroke-linecap="round" stroke-linejoin="round"/>
</svg>
