<svg width="26" height="26" viewBox="0 0 26 26" fill="none" xmlns="http://www.w3.org/2000/svg">
<path d="M10.6386 21.0326L10.6385 21.0326L10.6315 21.0391C10.5014 21.1609 10.4113 21.2431 10.3222 21.3038L10.6848 16.4953L21.6016 7.25306C21.6021 7.25266 21.6026 7.25226 21.603 7.25186C21.7521 7.12709 21.9466 6.91732 21.9579 6.62754C21.9725 6.25118 21.691 6.04963 21.4877 5.98176C21.291 5.91616 21.0752 5.92542 20.8851 5.96596C20.6875 6.00807 20.4781 6.09196 20.2735 6.2189L6.76869 14.1862L1.08015 12.518L1.0797 12.5178C0.798217 12.4356 0.632357 12.3408 0.549391 12.2677C0.525706 12.2468 0.512318 12.2314 0.505001 12.2212C0.516408 12.1984 0.549147 12.1475 0.639188 12.0731C0.779474 11.9573 1.01634 11.8218 1.37797 11.6893C1.37827 11.6892 1.37857 11.6891 1.37887 11.689L24.4368 3.36563C24.4374 3.3654 24.4381 3.36517 24.4387 3.36494C24.8637 3.21636 25.1503 3.29618 25.2933 3.4259C25.4261 3.54642 25.5783 3.84154 25.4536 4.46033L25.4367 4.5352L21.5137 21.8671C21.3833 22.4041 21.1811 22.6038 21.0221 22.6717C20.8588 22.7415 20.569 22.7468 20.0944 22.5029L14.1423 18.3931L13.8171 18.1686L13.5235 18.4331L10.6386 21.0326ZM0.496985 12.2066C0.497264 12.2066 0.498215 12.2083 0.498999 12.2118C0.497097 12.2083 0.496705 12.2066 0.496985 12.2066Z" stroke="#191919"/>
</svg>
