<svg width="26" height="26" viewBox="0 0 26 26" fill="none" xmlns="http://www.w3.org/2000/svg">
<path d="M23.2147 4.65387C22.3255 5.2811 21.3409 5.76083 20.299 6.07458C19.7397 5.43156 18.9965 4.9758 18.1698 4.76894C17.3431 4.56209 16.4728 4.61412 15.6766 4.918C14.8805 5.22189 14.1968 5.76296 13.7182 6.46803C13.2395 7.17311 12.989 8.00818 13.0004 8.8603V9.78887C11.3686 9.83118 9.7516 9.46927 8.2935 8.73535C6.83539 8.00144 5.58143 6.91832 4.64328 5.58244C4.64328 5.58244 0.92899 13.9396 9.28613 17.6539C7.37377 18.952 5.09564 19.6029 2.78613 19.511C11.1433 24.1539 21.3576 19.511 21.3576 8.83244C21.3567 8.57379 21.3318 8.31578 21.2833 8.06173C22.231 7.12711 22.8998 5.9471 23.2147 4.65387V4.65387Z" stroke="#191919" stroke-linecap="round" stroke-linejoin="round"/>
</svg>
