<svg width="26" height="26" viewBox="0 0 26 26" fill="none" xmlns="http://www.w3.org/2000/svg">
<g clip-path="url(#clip0)">
<path d="M20.9281 6.41463L20.9315 6.40641L20.9316 6.40613L20.9322 6.40487C20.9992 6.24861 21.0806 6.13497 21.1835 6.05854C21.2814 5.98589 21.4371 5.91797 21.7078 5.91797H24.5505C24.7266 5.91797 24.8356 5.94076 24.8979 5.96392C24.9277 5.97502 24.9441 5.98518 24.9519 5.99088C24.9559 5.99376 24.9581 5.99583 24.9592 5.99692L24.9608 5.99881L24.9619 6.00069C24.9625 6.00185 24.9635 6.00417 24.9647 6.00804C24.9671 6.01585 24.9705 6.03101 24.9715 6.05592C24.9721 6.07056 24.9719 6.08743 24.9704 6.10661L24.9703 6.10665L24.9191 6.33977C24.8471 6.66703 24.5978 7.21399 24.2211 7.89424C23.8536 8.55782 23.3933 9.2987 22.9399 9.99532C22.4872 10.6909 22.045 11.337 21.7153 11.8098C21.5506 12.0461 21.4142 12.2387 21.319 12.3722C21.2714 12.439 21.2342 12.4909 21.2089 12.526L21.1932 12.5477L21.1817 12.5592L21.152 12.6062L21.1415 12.6229C21.0079 12.8338 20.8322 13.1114 20.8061 13.4325C20.7759 13.8029 20.9412 14.1194 21.1789 14.4207C21.2117 14.4636 21.2547 14.5091 21.2822 14.538C21.3218 14.5796 21.3726 14.6316 21.4314 14.691C21.4934 14.7537 21.5685 14.8291 21.653 14.9139C21.727 14.9882 21.8083 15.0697 21.8942 15.1563C22.2667 15.5315 22.7506 16.0249 23.2452 16.5612C23.7407 17.0985 24.2412 17.6729 24.6486 18.21C25.0628 18.7562 25.3469 19.2206 25.4557 19.5491C25.5439 19.8472 25.4743 19.9376 25.4577 19.9565C25.4219 19.9971 25.2926 20.0846 24.9481 20.0846H22.1054C21.9079 20.0846 21.7648 20.0476 21.6294 19.9779C21.4835 19.9028 21.3243 19.7783 21.11 19.5674C20.9362 19.3962 20.7463 19.189 20.5094 18.9305C20.4514 18.8671 20.3905 18.8008 20.3264 18.7311C20.0055 18.3822 19.617 17.9669 19.1254 17.4847L19.1254 17.4846L19.1188 17.4783C17.419 15.8712 16.5702 15.5357 15.9413 15.5357C15.722 15.5357 15.4129 15.5447 15.1584 15.7205C14.873 15.9177 14.778 16.2286 14.7355 16.5048C14.6924 16.7847 14.6855 17.1575 14.6867 17.6247C14.6872 17.8223 14.6891 18.0342 14.6912 18.2688C14.6944 18.6193 14.6981 19.0204 14.6981 19.5002C14.6981 19.7974 14.6491 19.8406 14.5863 19.882C14.4414 19.9774 14.0725 20.0846 13.1668 20.0846C10.35 20.0846 7.17926 18.3973 4.90143 15.1874L4.90146 15.1873L4.89813 15.1828C3.15681 12.7868 2.0523 10.6885 1.38475 9.10652C1.05085 8.31524 0.827201 7.65533 0.687835 7.15402C0.544375 6.63797 0.5 6.32434 0.5 6.21097C0.5 6.05468 0.532622 6.01605 0.540903 6.00757C0.54944 5.99883 0.633882 5.91905 0.975 5.91905H3.81875C4.10905 5.91905 4.22293 5.97925 4.29507 6.04392C4.39136 6.13023 4.49578 6.29829 4.6315 6.67131C5.33894 8.69686 6.28939 10.5963 7.19185 11.9971C7.64241 12.6965 8.08988 13.2854 8.4988 13.7061C8.70279 13.9159 8.90842 14.0956 9.11046 14.2261C9.30367 14.3509 9.54338 14.4633 9.80417 14.4633C9.92642 14.4633 10.085 14.4506 10.2433 14.3799C10.4157 14.303 10.5483 14.1754 10.6398 14.012C10.7967 13.7317 10.8307 13.3422 10.8307 12.8962V8.7828V8.76881L10.8299 8.75485C10.7708 7.69895 10.4483 7.09336 10.1263 6.66279C10.0556 6.56823 9.986 6.48358 9.92793 6.41292L9.91665 6.39918C9.85312 6.32183 9.80776 6.26577 9.77143 6.21408C9.70419 6.11842 9.70075 6.08303 9.70075 6.05822C9.70075 6.03595 9.73619 5.91797 9.92442 5.91797H14.3942C14.5027 5.91797 14.5608 5.93273 14.5882 5.94358C14.6091 5.95183 14.6141 5.95802 14.619 5.96458C14.6429 5.99659 14.6959 6.1129 14.6959 6.44605V11.9765C14.6959 12.6843 15.0588 13.2771 15.6498 13.2771C16.2459 13.2771 16.6925 12.9002 17.3272 12.2769L17.3371 12.2672L17.3464 12.257C18.4105 11.0899 19.3069 9.62115 19.9323 8.45998C20.2467 7.87643 20.4959 7.36431 20.6668 6.99747C20.7523 6.81395 20.8184 6.66651 20.8633 6.56436C20.8857 6.51328 20.9029 6.47349 20.9146 6.44616L20.9281 6.41463Z" stroke="#191919"/>
</g>
<defs>
<clipPath id="clip0">
<rect width="26" height="26" fill="white"/>
</clipPath>
</defs>
</svg>
