<svg width="26" height="26" viewBox="0 0 26 26" fill="none" xmlns="http://www.w3.org/2000/svg">
<path d="M22.7881 7.81746C22.6778 7.37676 22.4531 6.97299 22.1368 6.6469C21.8205 6.32082 21.4238 6.08398 20.9867 5.96031C19.3895 5.57031 13.0009 5.57031 13.0009 5.57031C13.0009 5.57031 6.61238 5.57031 5.01524 5.99746C4.57811 6.12113 4.18136 6.35796 3.86506 6.68405C3.54876 7.01013 3.32411 7.41391 3.21381 7.8546C2.92151 9.47547 2.77853 11.1197 2.78666 12.7667C2.77624 14.4261 2.91923 16.083 3.21381 17.716C3.33541 18.143 3.56509 18.5314 3.88065 18.8438C4.19622 19.1561 4.587 19.3817 5.01524 19.4989C6.61238 19.926 13.0009 19.926 13.0009 19.926C13.0009 19.926 19.3895 19.926 20.9867 19.4989C21.4238 19.3752 21.8205 19.1384 22.1368 18.8123C22.4531 18.4862 22.6778 18.0824 22.7881 17.6417C23.0781 16.0331 23.2211 14.4013 23.2152 12.7667C23.2257 11.1073 23.0827 9.45053 22.7881 7.81746Z" stroke="#191919" stroke-linecap="round" stroke-linejoin="round"/>
<path d="M10.9117 15.8032L16.2509 12.7667L10.9117 9.73031V15.8032Z" stroke="#191919" stroke-linecap="round" stroke-linejoin="round"/>
</svg>
