<svg width="42" height="42" viewBox="0 0 42 42" fill="none" xmlns="http://www.w3.org/2000/svg">
<g clip-path="url(#clip0)">
<path d="M28.2565 21.5431C28.2565 21.1717 28.1123 20.8231 27.85 20.5608L23.8259 16.5367C23.5894 16.3003 23.2059 16.3003 22.9695 16.5367L16.9204 22.5858C16.807 22.6995 16.7432 22.8534 16.7432 23.0141C16.7432 23.1746 16.807 23.3288 16.9204 23.4422L20.9448 27.4662C21.2068 27.7282 21.5554 27.8728 21.9268 27.8728C22.2981 27.8728 22.6467 27.7282 22.9087 27.4662L27.85 22.525C28.1123 22.263 28.2565 21.9144 28.2565 21.5431ZM26.9935 21.6686L22.0523 26.6098C22.0075 26.655 21.9542 26.6616 21.9268 26.6616C21.899 26.6616 21.8461 26.655 21.8009 26.6098L18.2052 23.0141L20.0224 21.1969C20.537 22.6474 21.9227 23.6895 23.5477 23.6895C23.8823 23.6895 24.1533 23.4185 24.1533 23.0839C24.1533 22.7493 23.8823 22.4783 23.5477 22.4783C22.2339 22.4783 21.1514 21.4714 21.0305 20.1888L23.3978 17.8215L26.9935 21.4175C27.0387 21.4624 27.0453 21.5153 27.0453 21.5431C27.0453 21.5708 27.0387 21.6237 26.9935 21.6686Z" fill="black"/>
<path d="M41.1561 9.04219L39.9162 7.8026C38.4916 6.37796 36.7143 5.34678 34.7766 4.8206C34.4541 4.73275 34.1211 4.92341 34.0332 5.24616C33.9457 5.5689 34.1364 5.90162 34.4591 5.98916C36.1934 6.4602 37.7844 7.38328 39.0598 8.65901L39.8714 9.47055L36.6411 12.7008L35.8295 11.8893C34.7342 10.7939 33.2756 10.1908 31.7229 10.1908C30.1702 10.1908 28.7116 10.7939 27.6163 11.8893L25.7337 13.7722L22.5031 10.5416L24.386 8.65901C26.4486 6.59603 29.3095 5.49445 32.2335 5.63744C32.5662 5.65302 32.8513 5.396 32.8678 5.06204C32.884 4.72808 32.6263 4.44396 32.2924 4.42776C29.0294 4.26888 25.8334 5.4985 23.5293 7.8026L21.2843 10.0475L8.95323 16.4676C8.26349 16.8265 7.80024 17.4732 7.68186 18.2418C7.56348 19.0103 7.81115 19.7667 8.361 20.3163L9.68814 21.6437L4.56247 26.7694C4.32602 27.0058 4.32602 27.3893 4.56247 27.6258L5.33072 28.3943L0.67734 33.0474C0.440887 33.2839 0.440887 33.6674 0.67734 33.9038C0.914106 34.1403 1.29729 34.1403 1.53406 33.9038L6.18712 29.2504L8.7959 31.8595L4.14284 36.5129C3.90639 36.7494 3.90639 37.1329 4.14284 37.3693C4.26091 37.4874 4.41605 37.5466 4.57089 37.5466C4.72603 37.5466 4.88086 37.4874 4.99924 37.3693L9.65262 32.7159L10.4209 33.4842C10.5392 33.6022 10.6941 33.6614 10.8492 33.6614C11.0041 33.6614 11.1592 33.6026 11.2773 33.4842L12.7131 32.0483L14.5375 33.8727C15.4235 34.7587 16.6017 35.2468 17.855 35.2468C19.108 35.2468 20.2862 34.7587 21.1722 33.8727L22.1591 32.8857C22.3959 32.6493 22.3959 32.2658 22.1594 32.0293C21.9227 31.7929 21.5395 31.7929 21.303 32.0293L20.3158 33.0163C19.6585 33.6736 18.7846 34.0356 17.855 34.0356C16.9251 34.0356 16.0512 33.6736 15.3939 33.0163L7.71114 25.3335L10.9729 22.0718C11.2097 21.8353 11.2097 21.4518 10.9729 21.2154L9.21772 19.4602C8.94357 19.186 8.8202 18.8091 8.87908 18.4262C8.93796 18.043 9.16912 17.7206 9.51274 17.5418L21.5326 11.284L29.3294 19.0807C30.6864 20.4378 30.6864 22.6456 29.3294 24.0027L22.9601 30.372C22.7236 30.6084 22.7236 30.9919 22.9601 31.2284C23.1965 31.4648 23.58 31.4648 23.8165 31.2284L30.1858 24.8591C32.0151 23.0297 32.0151 20.0533 30.1858 18.2243L26.5901 14.6286L28.473 12.7457C29.3394 11.879 30.4936 11.4017 31.7232 11.4017C32.9525 11.4017 34.1068 11.879 34.9731 12.7457L36.213 13.9853C36.3267 14.099 36.4806 14.1629 36.6414 14.1629C36.8018 14.1629 36.9557 14.099 37.0694 13.9853L41.1564 9.8986C41.3926 9.66214 41.3926 9.27865 41.1561 9.04219ZM10.8489 32.1997L10.0813 31.4324C10.0813 31.4321 10.081 31.4318 10.0807 31.4315L6.61548 27.9663C6.61486 27.9657 6.61455 27.9654 6.61392 27.965L5.84693 27.1981L6.85443 26.1902L11.8564 31.1922L10.8489 32.1997Z" fill="black"/>
<path d="M37.1413 15.6163C36.9245 15.4508 36.6235 15.4508 36.4067 15.6163C34.349 17.1854 33.1689 19.5668 33.1689 22.1497C33.1689 22.2329 33.1702 22.3161 33.1727 22.3983C33.2403 24.6663 35.0357 25.8526 36.774 25.8526C38.5124 25.8526 40.3077 24.6663 40.3753 22.3987C40.3778 22.3161 40.3791 22.2329 40.3791 22.1497C40.3791 19.5668 39.1987 17.1854 37.1413 15.6163ZM39.1647 22.3625C39.1308 23.4968 38.3784 24.6414 36.774 24.6414C35.1696 24.6414 34.4173 23.4968 34.3836 22.3622C34.3814 22.2918 34.3805 22.2211 34.3805 22.1497C34.3805 20.1064 35.2472 18.2107 36.774 16.8789C38.3011 18.2107 39.1678 20.1064 39.1678 22.1497C39.1678 22.2211 39.1666 22.2918 39.1647 22.3625Z" fill="black"/>
</g>
<defs>
<clipPath id="clip0">
<rect width="40.8333" height="40.8333" fill="white" transform="translate(0.5 0.585938)"/>
</clipPath>
</defs>
</svg>
