<svg width="42" height="42" viewBox="0 0 42 42" fill="none" xmlns="http://www.w3.org/2000/svg">
<path d="M11.5656 27.3533C11.6924 27.3533 11.8139 27.303 11.9035 27.2134C11.9931 27.1238 12.0434 27.0023 12.0434 26.8756V26.4113C12.0434 26.2846 11.9931 26.1631 11.9035 26.0735C11.8139 25.9839 11.6924 25.9336 11.5656 25.9336C11.4389 25.9336 11.3174 25.9839 11.2278 26.0735C11.1382 26.1631 11.0879 26.2846 11.0879 26.4113V26.8756C11.0879 27.0023 11.1382 27.1238 11.2278 27.2134C11.3174 27.303 11.4389 27.3533 11.5656 27.3533Z" fill="black"/>
<path d="M11.5656 35.9071C11.6924 35.9071 11.8139 35.8568 11.9035 35.7672C11.9931 35.6776 12.0434 35.5561 12.0434 35.4294V28.3801C12.0434 28.2534 11.9931 28.1319 11.9035 28.0423C11.8139 27.9527 11.6924 27.9023 11.5656 27.9023C11.4389 27.9023 11.3174 27.9527 11.2278 28.0423C11.1382 28.1319 11.0879 28.2534 11.0879 28.3801V35.4294C11.0879 35.5561 11.1382 35.6776 11.2278 35.7672C11.3174 35.8568 11.4389 35.9071 11.5656 35.9071Z" fill="black"/>
<path d="M28.7521 4.08C28.71 4.00809 28.6498 3.94845 28.5774 3.907C28.5051 3.86556 28.4232 3.84375 28.3399 3.84375C28.2565 3.84375 28.1746 3.86556 28.1023 3.907C28.03 3.94845 27.9698 4.00809 27.9277 4.08L25.0078 9.06457C24.5339 9.87488 24.3714 10.83 24.5505 11.7515C24.7296 12.6729 25.2381 13.4976 25.981 14.0714C26.7239 14.6452 27.6503 14.9288 28.5871 14.8693C29.5239 14.8098 30.407 14.4111 31.0713 13.7479C31.6749 13.1435 32.0612 12.3561 32.17 11.5088C32.2788 10.6616 32.104 9.80216 31.6727 9.06481L28.7521 4.08ZM30.3957 13.0722C29.8961 13.5728 29.2312 13.8741 28.5254 13.9196C27.8197 13.9651 27.1215 13.7517 26.5618 13.3194C26.0021 12.8871 25.6193 12.2656 25.4849 11.5713C25.3506 10.8769 25.4741 10.1574 25.8322 9.54758L28.3397 5.26667L30.8479 9.54742C31.1725 10.1024 31.3041 10.7492 31.2223 11.3869C31.1404 12.0246 30.8496 12.6172 30.3954 13.0722H30.3957Z" fill="black"/>
<path d="M30.2819 10.4978C30.2204 10.4853 30.157 10.4851 30.0954 10.4971C30.0339 10.5091 29.9752 10.5331 29.9229 10.5678C29.8706 10.6025 29.8257 10.6471 29.7906 10.6991C29.7556 10.7512 29.7311 10.8096 29.7187 10.8711C29.6637 11.1428 29.5297 11.3921 29.3334 11.5877C29.1834 11.7389 29.0005 11.8533 28.7991 11.9222C28.6792 11.9633 28.5807 12.0504 28.525 12.1643C28.4694 12.2781 28.4613 12.4094 28.5025 12.5293C28.5437 12.6491 28.6308 12.7477 28.7446 12.8033C28.8585 12.8589 28.9898 12.867 29.1096 12.8258C29.4984 12.6914 29.8455 12.458 30.1165 12.1485C30.3875 11.839 30.5732 11.4642 30.6551 11.0611C30.6676 10.9996 30.6679 10.9362 30.6559 10.8746C30.6439 10.8131 30.6198 10.7544 30.5852 10.7021C30.5505 10.6498 30.5059 10.6049 30.4538 10.5698C30.4018 10.5347 30.3434 10.5103 30.2819 10.4978Z" fill="black"/>
<path d="M28.3391 1.39844C27.071 1.39759 25.8209 1.69865 24.6921 2.27673C23.5634 2.8548 22.5885 3.69327 21.848 4.72281H7.20329C6.71167 4.72281 6.24017 4.91811 5.89254 5.26574C5.54491 5.61338 5.34961 6.08487 5.34961 6.5765C5.34961 7.06812 5.54491 7.53962 5.89254 7.88725C6.24017 8.23488 6.71167 8.43018 7.20329 8.43018H7.69299V20.726H7.20329C6.95992 20.726 6.71892 20.7739 6.49407 20.8671C6.26922 20.9602 6.06492 21.0967 5.89282 21.2688C5.72073 21.4409 5.58422 21.6452 5.49108 21.87C5.39794 22.0949 5.35001 22.3359 5.35001 22.5793C5.35001 22.8226 5.39794 23.0636 5.49108 23.2885C5.58422 23.5133 5.72073 23.7176 5.89282 23.8897C6.06492 24.0618 6.26922 24.1983 6.49407 24.2915C6.71892 24.3846 6.95992 24.4326 7.20329 24.4326H7.69299V36.7283H7.20329C6.71167 36.7283 6.24017 36.9236 5.89254 37.2713C5.54491 37.6189 5.34961 38.0904 5.34961 38.582C5.34961 39.0737 5.54491 39.5452 5.89254 39.8928C6.24017 40.2404 6.71167 40.4357 7.20329 40.4357H29.6673C30.1589 40.4357 30.6304 40.2404 30.978 39.8928C31.3257 39.5452 31.521 39.0737 31.521 38.582C31.521 38.0904 31.3257 37.6189 30.978 37.2713C30.6304 36.9236 30.1589 36.7283 29.6673 36.7283H29.1768V24.4326H29.6673C30.1588 24.4326 30.6302 24.2373 30.9778 23.8897C31.3253 23.5422 31.5206 23.0708 31.5206 22.5793C31.5206 22.0877 31.3253 21.6164 30.9778 21.2688C30.6302 20.9212 30.1588 20.726 29.6673 20.726H29.1768V17.3559C31.2149 17.1414 33.0929 16.153 34.4237 14.5945C35.7545 13.036 36.4364 11.0263 36.329 8.97974C36.2216 6.93321 35.3329 5.00594 33.8463 3.59534C32.3597 2.18475 30.3885 1.39839 28.3391 1.39844ZM7.20329 7.47467C6.96508 7.47467 6.73663 7.38004 6.56819 7.2116C6.39975 7.04316 6.30512 6.81471 6.30512 6.5765C6.30512 6.33828 6.39975 6.10983 6.56819 5.94139C6.73663 5.77295 6.96508 5.67832 7.20329 5.67832H21.2552C20.9552 6.247 20.7259 6.85027 20.5726 7.47467H7.20329ZM29.6673 37.6839C29.9055 37.6839 30.134 37.7785 30.3024 37.9469C30.4708 38.1154 30.5655 38.3438 30.5655 38.582C30.5655 38.8202 30.4708 39.0487 30.3024 39.2171C30.134 39.3856 29.9055 39.4802 29.6673 39.4802H7.20329C7.02559 39.4802 6.85189 39.4274 6.70417 39.3287C6.55644 39.2299 6.44133 39.0895 6.37338 38.9253C6.30544 38.7611 6.28772 38.5805 6.32247 38.4062C6.35722 38.2319 6.44287 38.0719 6.5686 37.9463C6.65169 37.8626 6.7506 37.7963 6.85956 37.7512C6.96852 37.7061 7.08537 37.6831 7.20329 37.6835H9.24593C9.37264 37.6835 9.49416 37.6332 9.58375 37.5436C9.67335 37.454 9.72369 37.3325 9.72369 37.2058C9.72369 37.0791 9.67335 36.9576 9.58375 36.868C9.49416 36.7784 9.37264 36.728 9.24593 36.728H8.64874V24.4326H28.2213V36.7283H11.1835C11.0568 36.7283 10.9353 36.7787 10.8457 36.8683C10.7561 36.9579 10.7058 37.0794 10.7058 37.2061C10.7058 37.3328 10.7561 37.4543 10.8457 37.5439C10.9353 37.6335 11.0568 37.6839 11.1835 37.6839H29.6673ZM29.6673 21.6815C29.9054 21.6815 30.1337 21.7761 30.3021 21.9444C30.4705 22.1128 30.5651 22.3412 30.5651 22.5793C30.5651 22.8174 30.4705 23.0457 30.3021 23.2141C30.1337 23.3825 29.9054 23.477 29.6673 23.477H7.20329C6.96517 23.4768 6.73687 23.3821 6.56849 23.2137C6.40011 23.0453 6.30539 22.817 6.30512 22.5789C6.30517 22.461 6.32844 22.3442 6.37361 22.2353C6.41877 22.1264 6.48495 22.0275 6.56835 21.9442C6.65176 21.8608 6.75076 21.7947 6.8597 21.7497C6.96864 21.7046 7.0854 21.6814 7.20329 21.6815H23.0478C23.1745 21.6815 23.296 21.6312 23.3856 21.5416C23.4752 21.452 23.5255 21.3304 23.5255 21.2037C23.5255 21.077 23.4752 20.9555 23.3856 20.8659C23.296 20.7763 23.1745 20.726 23.0478 20.726H8.6485V8.43018H20.3974C20.2622 9.54428 20.3628 10.6744 20.6927 11.7471C21.0225 12.8198 21.5742 13.8112 22.312 14.6568C23.0497 15.5025 23.9571 16.1836 24.9751 16.656C25.9932 17.1283 27.0991 17.3813 28.2213 17.3985V20.726H25.2773C25.1506 20.726 25.0291 20.7763 24.9395 20.8659C24.8499 20.9555 24.7995 21.077 24.7995 21.2037C24.7995 21.3304 24.8499 21.452 24.9395 21.5416C25.0291 21.6312 25.1506 21.6815 25.2773 21.6815H29.6673ZM28.6751 16.4363C28.557 16.4418 28.4471 16.4443 28.3391 16.4443C27.2997 16.4437 26.2733 16.2133 25.3334 15.7695C24.3935 15.3257 23.5634 14.6795 22.9026 13.8772C22.2418 13.0749 21.7666 12.1364 21.5111 11.1289C21.2555 10.1214 21.226 9.06983 21.4246 8.04957C21.6005 7.13575 21.9579 6.26648 22.4757 5.49319C23.1428 4.49172 24.0554 3.67782 25.1263 3.12909C26.1973 2.58035 27.3909 2.31507 28.5935 2.35852C29.7961 2.40198 30.9674 2.75273 31.996 3.37733C33.0245 4.00194 33.876 4.87958 34.4691 5.92659C35.0622 6.9736 35.3773 8.15509 35.3843 9.35842C35.3913 10.5617 35.0899 11.7468 34.509 12.8006C33.928 13.8545 33.0868 14.7419 32.0656 15.3784C31.0444 16.0149 29.8771 16.3792 28.6751 16.4366L28.6751 16.4363Z" fill="black"/>
</svg>
