<svg width="42" height="42" viewBox="0 0 42 42" fill="none" xmlns="http://www.w3.org/2000/svg">
<path fill-rule="evenodd" clip-rule="evenodd" d="M8.56994 2.68988C7.07475 2.68988 5.86267 3.90197 5.86267 5.39715V16.5326H24.8763V5.39716C24.8763 3.90197 23.6642 2.68988 22.169 2.68988H8.56994ZM24.8763 17.4882H5.86267V39.1584H24.8763V17.4882ZM25.8318 39.1584H28.9671V40.1139H1.65527V39.1584H4.90716V5.39715C4.90716 3.37426 6.54704 1.73438 8.56994 1.73438H22.169C24.1919 1.73438 25.8318 3.37426 25.8318 5.39716V21.4784H27.8415C30.7439 21.4784 33.0968 23.8313 33.0968 26.7337V30.7272C33.0968 32.5231 34.5527 33.979 36.3487 33.979C38.1446 33.979 39.6006 32.5231 39.6006 30.7272V16.4756H37.6885C36.1054 16.4756 34.822 15.1923 34.822 13.6091V7.00494L31.6204 3.79572L32.2968 3.12088L35.6366 6.46858L35.6379 6.46996L39.9455 10.7526C40.3363 11.1412 40.5561 11.6696 40.5561 12.2207V30.7272C40.5561 33.0508 38.6724 34.9345 36.3487 34.9345C34.025 34.9345 32.1413 33.0508 32.1413 30.7272V26.7337C32.1413 24.359 30.2162 22.4339 27.8415 22.4339H25.8318V39.1584ZM35.7775 7.95608V13.6091C35.7775 14.6645 36.6331 15.5201 37.6885 15.5201H39.6006V12.2207C39.6006 11.924 39.4822 11.6395 39.2718 11.4302L35.7775 7.95608Z" fill="#191919"/>
</svg>
