<svg width="42" height="42" viewBox="0 0 42 42" fill="none" xmlns="http://www.w3.org/2000/svg">
<g clip-path="url(#clip0)">
<path d="M34.08 12.5745C35.5708 11.8986 36.6109 10.3975 36.6109 8.65697C36.6109 7.73029 36.3152 6.87185 35.8146 6.16899V6.10895C35.8146 3.03556 33.3142 0.535156 30.2408 0.535156C27.1674 0.535156 24.667 3.03556 24.667 6.10895C24.667 7.16503 24.9717 8.20271 25.5322 9.08958C24.9975 9.63557 24.667 10.3822 24.667 11.205C24.667 11.7741 24.8298 12.3245 25.1226 12.7975H16.5694C16.8615 12.3258 17.0229 11.7764 17.0229 11.205C17.0229 10.3822 16.6924 9.63557 16.1577 9.08958C16.7182 8.20271 17.0229 7.16503 17.0229 6.10895C17.0229 3.03556 14.5225 0.535156 11.4492 0.535156C8.37576 0.535156 5.87536 3.03556 5.87536 6.10895V6.16899C5.37475 6.87185 5.0791 7.73029 5.0791 8.65697C5.0791 10.3975 6.11917 11.8986 7.61 12.5745C6.84934 13.1246 6.35311 14.0187 6.35311 15.027C6.35311 16.2105 7.03646 17.2368 8.02899 17.7338C7.77809 18.037 7.62712 18.4257 7.62712 18.8491C7.62712 19.815 8.41295 20.6008 9.37889 20.6008V19.6453C8.93983 19.6453 8.58263 19.2881 8.58263 18.8491C8.58263 18.41 8.93983 18.0528 9.37889 18.0528V17.0973C8.23737 17.0973 7.30862 16.1685 7.30862 15.027C7.30862 13.8855 8.23737 12.9568 9.37889 12.9568V12.0013C7.53484 12.0013 6.03461 10.501 6.03461 8.65697C6.03461 6.81292 7.53484 5.3127 9.37889 5.3127V4.35719C8.47322 4.35719 7.63254 4.6393 6.93876 5.11936C7.3931 3.04695 9.24233 1.49066 11.4492 1.49066C13.9957 1.49066 16.0674 3.56244 16.0674 6.10895C16.0674 6.9744 15.8345 7.79749 15.3896 8.52002C14.9724 8.3028 14.4991 8.17922 13.9972 8.17922V9.13473C15.1387 9.13473 16.0674 10.0635 16.0674 11.205C16.0674 11.8242 15.7903 12.4057 15.3187 12.7975H14.2771L11.4492 15.6254V17.8935H10.1751V21.3971H11.4492V26.8116H8.90113V38.2777H7.62712V41.3035H34.0628V38.2777H32.7888V26.8116H30.2408V21.3971H31.5148V17.8935H30.2408V15.6254L27.4129 12.7975H26.3708C25.9 12.4057 25.6225 11.821 25.6225 11.205C25.6225 10.0635 26.5513 9.13473 27.6928 9.13473V8.17922C27.1909 8.17922 26.7175 8.3028 26.3004 8.52002C25.8555 7.79749 25.6225 6.9744 25.6225 6.10895C25.6225 3.56244 27.6943 1.49066 30.2408 1.49066C32.4476 1.49066 34.2969 3.04695 34.7512 5.11936C34.0574 4.6393 33.2167 4.35719 32.3111 4.35719V5.3127C34.1551 5.3127 35.6554 6.81292 35.6554 8.65697C35.6554 10.501 34.1551 12.0013 32.3111 12.0013V12.9568C33.4526 12.9568 34.3813 13.8855 34.3813 15.027C34.3813 16.1685 33.4526 17.0973 32.3111 17.0973V18.0528C32.7501 18.0528 33.1073 18.41 33.1073 18.8491C33.1073 19.2881 32.7501 19.6453 32.3111 19.6453V20.6008C33.277 20.6008 34.0628 19.815 34.0628 18.8491C34.0628 18.4257 33.9119 18.037 33.661 17.7338C34.6535 17.2368 35.3368 16.2105 35.3368 15.027C35.3368 14.0187 34.8406 13.1246 34.08 12.5745ZM9.85664 27.7671H11.4492V38.2777H9.85664V27.7671ZM33.1073 39.2332V40.348H8.58263V39.2332H33.1073ZM13.9972 22.9896V26.8116H12.4047V21.3971H29.2853V26.8116H27.6928V22.9896H13.9972ZM26.7373 23.9451V26.8116H14.9527V23.9451H26.7373ZM29.2853 27.7671V38.2777H24.1804C25.1562 37.4888 25.7818 36.2831 25.7818 34.9334C25.7818 32.5625 23.8529 30.6337 21.482 30.6337H21.0042V33.1817C21.0042 33.4452 20.79 33.6594 20.5265 33.6594C20.263 33.6594 20.0487 33.4452 20.0487 33.1817V31.1114C20.0487 30.1455 19.2629 29.3596 18.297 29.3596H16.3859V30.3152C16.825 30.3152 17.1822 30.6724 17.1822 31.1114V34.9334C17.1822 36.2831 17.8077 37.4888 18.7836 38.2777H12.4047V27.7671H29.2853ZM21.4024 35.7297C20.4364 35.7297 19.6506 36.5155 19.6506 37.4815C19.6506 37.57 19.6574 37.657 19.6701 37.7421C18.749 37.1458 18.1377 36.11 18.1377 34.9334V31.1114C18.1377 30.8249 18.0685 30.5542 17.946 30.3152H18.297C18.736 30.3152 19.0932 30.6724 19.0932 31.1114V33.1817C19.0932 33.972 19.7362 34.6149 20.5265 34.6149C21.3168 34.6149 21.9597 33.972 21.9597 33.1817V31.6232C23.5783 31.8557 24.8263 33.2516 24.8263 34.9334C24.8263 36.1848 24.135 37.2771 23.1146 37.8505C23.1403 37.7315 23.1541 37.6081 23.1541 37.4815C23.1541 36.5155 22.3683 35.7297 21.4024 35.7297ZM22.1986 37.4815C22.1986 37.9115 21.8557 38.2622 21.429 38.2764C21.3934 38.2758 21.3578 38.2753 21.3224 38.2737C20.9208 38.2334 20.6061 37.8935 20.6061 37.4815C20.6061 37.0424 20.9633 36.6852 21.4024 36.6852C21.8414 36.6852 22.1986 37.0424 22.1986 37.4815ZM31.8333 27.7671V38.2777H30.2408V27.7671H31.8333ZM30.5593 18.8491V20.4416H11.1307V18.8491H30.5593ZM29.2853 17.8935H12.4047V16.301H29.2853V17.8935ZM27.0172 13.753L28.6097 15.3455H13.0803L14.6728 13.753H27.0172Z" fill="#191919"/>
</g>
<defs>
<clipPath id="clip0">
<rect width="40.7683" height="40.7683" fill="white" transform="translate(0.460938 0.535156)"/>
</clipPath>
</defs>
</svg>
