<svg width="42" height="42" viewBox="0 0 42 42" fill="none" xmlns="http://www.w3.org/2000/svg">
<path d="M22.2826 19.9861C22.3356 19.9861 22.3882 19.9772 22.4383 19.9599C22.7671 19.8466 23.0821 19.6968 23.3775 19.5133C23.6818 19.3237 23.9634 19.0999 24.2168 18.8463C24.8668 18.1979 25.3102 17.3716 25.4912 16.4716C25.5162 16.3472 25.4909 16.2179 25.4206 16.1122C25.3859 16.0598 25.3411 16.0148 25.289 15.9798C25.2368 15.9447 25.1782 15.9203 25.1166 15.9079C24.9922 15.8828 24.8629 15.9082 24.7572 15.9784C24.6515 16.0486 24.578 16.158 24.553 16.2824C24.4091 16.9977 24.0567 17.6544 23.5401 18.1697C23.3384 18.3716 23.1143 18.5497 22.8721 18.7006C22.6377 18.8462 22.3878 18.965 22.1269 19.0548C22.0197 19.0916 21.9291 19.1652 21.8711 19.2626C21.8131 19.3599 21.7916 19.4746 21.8103 19.5864C21.829 19.6981 21.8867 19.7996 21.9732 19.8728C22.0597 19.9459 22.1693 19.986 22.2826 19.986L22.2826 19.9861Z" fill="black"/>
<path d="M37.5672 20.9265L34.451 20.2388C34.1334 19.0443 33.6583 17.8975 33.0382 16.8283L34.7561 14.1386C34.8148 14.0468 34.8403 13.9376 34.8285 13.8293C34.8167 13.7209 34.7683 13.6198 34.6912 13.5427L31.2211 10.0728C31.144 9.99567 31.0429 9.94721 30.9345 9.9354C30.8261 9.9236 30.7169 9.94916 30.6251 10.0078L27.9353 11.7258C27.679 11.5774 27.4169 11.437 27.1522 11.3051L21.3299 1.36554C21.2877 1.29351 21.2274 1.23377 21.155 1.19226C21.0825 1.15075 21.0005 1.12891 20.917 1.12891C20.8335 1.12891 20.7515 1.15075 20.6791 1.19226C20.6067 1.23377 20.5463 1.29351 20.5041 1.36554L14.6822 11.3049C14.4185 11.4361 14.1562 11.5767 13.8988 11.726L11.2091 10.0081C11.1173 9.9494 11.0081 9.92384 10.8997 9.93564C10.7913 9.94745 10.6902 9.99591 10.6132 10.073L7.14312 13.543C7.06604 13.62 7.01759 13.7211 7.00578 13.8295C6.99398 13.9379 7.01953 14.047 7.0782 14.1389L8.79607 16.8285C8.17597 17.8976 7.70078 19.0444 7.38301 20.2388L4.267 20.9265C4.16056 20.95 4.06534 21.0091 3.99708 21.0941C3.92881 21.1791 3.8916 21.2848 3.8916 21.3938V26.3002C3.89159 26.4092 3.9288 26.515 3.99708 26.6C4.06536 26.6849 4.16062 26.7441 4.26708 26.7675L7.38301 27.4544C7.70049 28.6493 8.17554 29.7965 8.79567 30.866L7.0778 33.5553C7.01912 33.6472 6.99357 33.7563 7.00539 33.8647C7.01721 33.9731 7.06569 34.0742 7.1428 34.1513L10.6128 37.6205C10.6899 37.6976 10.791 37.746 10.8994 37.7578C11.0077 37.7696 11.1169 37.7441 11.2087 37.6854L13.8982 35.9676C14.9672 36.5882 16.1142 37.0635 17.3089 37.3812L17.9966 40.4972C18.0201 40.6036 18.0792 40.6988 18.1641 40.7671C18.2491 40.8354 18.3548 40.8726 18.4638 40.8726H23.3702C23.4792 40.8726 23.5849 40.8354 23.6699 40.7671C23.7549 40.6988 23.814 40.6036 23.8375 40.4972L24.5252 37.3812C25.7198 37.0635 26.8668 36.5882 27.9359 35.9676L30.6253 37.6854C30.7172 37.7441 30.8263 37.7696 30.9347 37.7578C31.0431 37.746 31.1441 37.6976 31.2212 37.6205L34.6913 34.1513C34.7684 34.0742 34.8168 33.9731 34.8287 33.8647C34.8405 33.7563 34.8149 33.6472 34.7563 33.5553L33.0384 30.866C33.6585 29.7965 34.1336 28.6493 34.451 27.4544L37.567 26.7675C37.6734 26.7441 37.7687 26.6849 37.837 26.6C37.9053 26.515 37.9425 26.4092 37.9425 26.3002V21.3938C37.9425 21.2848 37.9053 21.1791 37.837 21.0942C37.7688 21.0092 37.6736 20.9501 37.5672 20.9265ZM36.9856 25.9157L33.9572 26.5833C33.8698 26.6026 33.7895 26.646 33.7256 26.7086C33.6616 26.7713 33.6164 26.8506 33.5953 26.9376C33.2793 28.2384 32.764 29.4826 32.0676 30.626C32.0211 30.7024 31.9969 30.7904 31.9979 30.88C31.9988 30.9695 32.0249 31.0569 32.0731 31.1324L33.7427 33.7464L30.8165 36.672L28.2024 35.0022C28.1269 34.9541 28.0395 34.9281 27.9499 34.9272C27.8604 34.9263 27.7724 34.9506 27.696 34.9972C26.5531 35.6939 25.3092 36.2094 24.0085 36.5255C23.9215 36.5467 23.8422 36.5918 23.7797 36.6558C23.7171 36.7197 23.6737 36.8 23.6544 36.8873L22.9858 39.9156H18.8482L18.1798 36.8873C18.1606 36.8 18.1172 36.7197 18.0546 36.6558C17.992 36.5918 17.9127 36.5467 17.8257 36.5255C16.525 36.2094 15.281 35.6939 14.1381 34.9972C14.0616 34.9506 13.9736 34.9264 13.884 34.9273C13.7945 34.9282 13.707 34.9543 13.6315 35.0025L11.0176 36.672L8.09137 33.7464L9.76099 31.1324C9.80918 31.0569 9.83524 30.9695 9.8362 30.88C9.83716 30.7904 9.81298 30.7024 9.76642 30.626C9.07009 29.4826 8.55478 28.2384 8.23876 26.9376C8.21761 26.8506 8.17248 26.7713 8.10851 26.7086C8.04453 26.646 7.96426 26.6026 7.87684 26.5833L4.84847 25.9157V21.7782L7.87692 21.1098C7.96432 21.0905 8.04456 21.0471 8.10852 20.9845C8.17248 20.9219 8.2176 20.8426 8.23876 20.7556C8.55493 19.455 9.07024 18.2111 9.76642 17.0679C9.81296 16.9915 9.83713 16.9035 9.83617 16.814C9.83521 16.7245 9.80917 16.637 9.76099 16.5616L8.09137 13.9475L11.0177 11.0213L13.6316 12.691C13.694 12.7305 13.7647 12.7551 13.8381 12.7627C13.7521 12.9258 13.6711 13.0914 13.5971 13.2588C13.5469 13.3747 13.5445 13.5058 13.5905 13.6234C13.6365 13.741 13.7271 13.8357 13.8426 13.8868C13.9582 13.9379 14.0892 13.9412 14.2072 13.896C14.3251 13.8509 14.4205 13.7609 14.4724 13.6458C14.581 13.4005 14.7035 13.1615 14.8392 12.9301L20.917 2.55385L26.9951 12.9297C27.5359 13.8526 27.8593 14.8866 27.941 15.9531C28.0226 17.0197 27.8602 18.0909 27.4663 19.0853C27.0723 20.0798 26.457 20.9715 25.667 21.6928C24.8771 22.4141 23.9333 22.946 22.9072 23.2481C21.8811 23.5503 20.7996 23.6149 19.7448 23.4369C18.6901 23.2589 17.6897 22.843 16.8196 22.2208C15.9495 21.5986 15.2325 20.7864 14.723 19.8458C14.2136 18.9053 13.925 17.861 13.8792 16.7923C13.8747 16.6914 13.8725 16.5888 13.8725 16.4873C13.8726 16.0687 13.91 15.651 13.9841 15.2391C13.9953 15.1773 13.9941 15.1139 13.9808 15.0525C13.9674 14.9911 13.9421 14.9329 13.9062 14.8813C13.8704 14.8297 13.8247 14.7856 13.7718 14.7517C13.7189 14.7177 13.6599 14.6945 13.5981 14.6833C13.5362 14.6722 13.4728 14.6733 13.4114 14.6867C13.35 14.7001 13.2918 14.7254 13.2402 14.7613C13.1886 14.7971 13.1445 14.8428 13.1106 14.8957C13.0766 14.9485 13.0534 15.0076 13.0423 15.0694C12.9581 15.5373 12.9157 16.0118 12.9156 16.4873C12.9156 16.5351 12.9178 16.5825 12.9187 16.6303C11.1292 18.6075 10.1401 21.1802 10.144 23.847C10.144 29.7872 14.9771 34.62 20.917 34.62C26.857 34.62 31.69 29.787 31.69 23.847C31.6935 21.1808 30.7047 18.6087 28.9162 16.6313C28.9411 15.2847 28.6244 13.9537 27.9959 12.7625C28.0694 12.7549 28.1402 12.7304 28.2026 12.6907L30.8166 11.0211L33.7428 13.9473L32.0731 16.5616C32.0249 16.637 31.9988 16.7245 31.9979 16.814C31.9969 16.9035 32.0211 16.9915 32.0676 17.0679C32.7638 18.2111 33.2791 19.455 33.5953 20.7556C33.6165 20.8426 33.6616 20.9219 33.7255 20.9845C33.7895 21.0471 33.8697 21.0905 33.9571 21.1098L36.9856 21.7782V25.9157ZM28.7802 17.9707C29.8704 19.4299 30.5331 21.1636 30.6941 22.9779C30.8552 24.7922 30.5083 26.6155 29.6922 28.2439C28.8761 29.8722 27.623 31.2414 26.0732 32.1982C24.5233 33.1551 22.7378 33.6618 20.9164 33.6617C19.0949 33.6616 17.3094 33.1547 15.7597 32.1978C14.2099 31.2408 12.9569 29.8715 12.141 28.2431C11.3251 26.6146 10.9783 24.7912 11.1395 22.977C11.3008 21.1627 11.9636 19.4291 13.054 17.97C13.3988 19.8032 14.3733 21.4584 15.809 22.6493C17.2448 23.8402 19.0515 24.492 20.9168 24.4921C22.7822 24.4921 24.589 23.8404 26.0248 22.6496C27.4606 21.4588 28.4352 19.8038 28.7802 17.9706V17.9707Z" fill="black"/>
</svg>
