<svg width="80" height="80" viewBox="0 0 80 80" fill="none" xmlns="http://www.w3.org/2000/svg">
<path d="M79.6133 15.0533L64.9444 0.386667C64.6901 0.141072 64.3512 0.00263238 63.9976 0H30.6593C29.5993 0.00316545 28.5835 0.425609 27.834 1.17507C27.0844 1.92453 26.6619 2.94011 26.6587 4V12.0667C19.4757 12.4033 12.6983 15.4933 7.73402 20.6949C2.76973 25.8966 0 32.8102 0 40C0 47.1898 2.76973 54.1034 7.73402 59.3051C12.6983 64.5067 19.4757 67.5967 26.6587 67.9333V76C26.6619 77.0599 27.0844 78.0755 27.834 78.8249C28.5835 79.5744 29.5993 79.9968 30.6593 80H75.9994C77.0595 79.9968 78.0752 79.5744 78.8248 78.8249C79.5743 78.0755 79.9968 77.0599 80 76V16C79.9974 15.6465 79.8589 15.3076 79.6133 15.0533ZM65.3311 4.54667L75.4527 14.6667H66.6647C66.311 14.6667 65.9718 14.5262 65.7217 14.2761C65.4716 14.0261 65.3311 13.687 65.3311 13.3333V4.54667ZM2.65513 40C2.66381 33.515 5.15648 27.2797 9.62085 22.5755C14.0852 17.8712 20.1822 15.0554 26.6587 14.7067V39.4533L9.18944 56.92C4.98416 52.2878 2.65471 46.2559 2.65513 40ZM11.0697 58.8L28.539 41.3333H53.2893C53.0464 46.111 51.4529 50.7217 48.6939 54.6299C45.9349 58.5382 42.1236 61.5837 37.7026 63.4127C33.2816 65.2417 28.4323 65.7792 23.718 64.9627C19.0037 64.1462 14.6178 62.0092 11.0697 58.8ZM77.3329 76C77.3329 76.3536 77.1924 76.6928 76.9424 76.9428C76.6923 77.1929 76.3531 77.3333 75.9994 77.3333H30.6593C30.3056 77.3333 29.9664 77.1929 29.7164 76.9428C29.4663 76.6928 29.3258 76.3536 29.3258 76V67.9333C36.5063 67.5865 43.2789 64.4938 48.243 59.2947C53.2071 54.0956 55.9829 47.1878 55.9964 40C55.9964 39.6464 55.8559 39.3072 55.6058 39.0572C55.3558 38.8071 55.0166 38.6667 54.6629 38.6667H29.3258V4C29.3258 3.64638 29.4663 3.30724 29.7164 3.05719C29.9664 2.80714 30.3056 2.66667 30.6593 2.66667H62.6641V13.3333C62.6672 14.3932 63.0898 15.4088 63.8393 16.1583C64.5889 16.9077 65.6046 17.3302 66.6647 17.3333H77.3329V76Z" fill="#03A3DF"/>
<path d="M33.3267 6.66797C32.973 6.66797 32.6338 6.80844 32.3837 7.05849C32.1337 7.30854 31.9932 7.64768 31.9932 8.0013V34.668C31.9932 35.0216 32.1337 35.3607 32.3837 35.6108C32.6338 35.8608 32.973 36.0013 33.3267 36.0013H59.9973C60.351 36.0013 60.6902 35.8608 60.9403 35.6108C61.1904 35.3607 61.3309 35.0216 61.3309 34.668C61.3228 27.2444 58.3697 20.1272 53.1197 14.8779C47.8696 9.62868 40.7514 6.67609 33.3267 6.66797ZM34.6602 33.3346V9.37464C40.9069 9.71 46.8092 12.342 51.2326 16.7648C55.656 21.1875 58.2884 27.0889 58.6238 33.3346H34.6602Z" fill="#03A3DF"/>
<path d="M62.6639 50.668C60.2902 50.668 57.9698 51.3718 55.9961 52.6903C54.0224 54.0089 52.4841 55.8831 51.5757 58.0758C50.6673 60.2685 50.4296 62.6813 50.8927 65.0091C51.3558 67.3368 52.4989 69.475 54.1774 71.1532C55.8558 72.8315 57.9944 73.9744 60.3225 74.4374C62.6506 74.9004 65.0638 74.6628 67.2568 73.7545C69.4498 72.8463 71.3243 71.3082 72.643 69.3348C73.9618 67.3614 74.6657 65.0413 74.6657 62.668C74.6608 59.4869 73.3947 56.4375 71.145 54.1881C68.8953 51.9388 65.8455 50.6729 62.6639 50.668ZM62.6639 72.0013C60.8177 72.0013 59.0129 71.4539 57.4778 70.4284C55.9427 69.4028 54.7463 67.9451 54.0397 66.2397C53.3332 64.5342 53.1484 62.6576 53.5085 60.8471C53.8687 59.0366 54.7578 57.3736 56.0633 56.0683C57.3687 54.763 59.032 53.8741 60.8428 53.514C62.6536 53.1538 64.5305 53.3387 66.2362 54.0451C67.9418 54.7515 69.3997 55.9478 70.4254 57.4826C71.4512 59.0175 71.9986 60.822 71.9986 62.668C71.9958 65.1425 71.0114 67.5148 69.2614 69.2645C67.5114 71.0142 65.1388 71.9985 62.6639 72.0013Z" fill="#03A3DF"/>
<path d="M59.9961 64.78L56.9384 61.7227L55.0527 63.608L59.0533 67.608C59.3034 67.858 59.6425 67.9984 59.9961 67.9984C60.3497 67.9984 60.6889 67.858 60.9389 67.608L68.9401 59.608L67.0545 57.7227L59.9961 64.78Z" fill="#03A3DF"/>
<path d="M63.998 22.668H74.6663V25.3346H63.998V22.668Z" fill="#03A3DF"/>
<path d="M63.998 30.668H74.6663V33.3346H63.998V30.668Z" fill="#03A3DF"/>
<path d="M63.998 38.668H74.6663V41.3346H63.998V38.668Z" fill="#03A3DF"/>
</svg>
