<svg width="60" height="80" viewBox="0 0 60 80" fill="none" xmlns="http://www.w3.org/2000/svg">
<path d="M57.7969 15.3094L44.6906 2.20313C43.2844 0.796875 41.3781 0 39.3953 0H7.49844C3.35938 0.015625 0 3.375 0 7.51406V72.5016C0 76.6406 3.35938 80 7.49844 80H52.5016C56.6406 80 60 76.6406 60 72.5016V20.6203C60 18.6375 59.2031 16.7156 57.7969 15.3094V15.3094ZM40.0047 5.09219C40.4422 5.20156 40.8328 5.42031 41.1609 5.74844L54.2672 18.8547C54.5953 19.1828 54.8141 19.5734 54.9234 20.0109H40.0047V5.09219V5.09219ZM55.0016 72.5016C55.0016 73.8766 53.8766 75.0016 52.5016 75.0016H7.49844C6.12344 75.0016 4.99844 73.8766 4.99844 72.5016V7.51406C4.99844 6.13906 6.12344 5 7.49844 5H35.0047V21.2609C35.0047 23.3391 36.6766 25 38.7547 25H55.0016V72.5016ZM10 32.5V67.5C10 68.8813 11.1187 70 12.5 70H47.5C48.8813 70 50 68.8813 50 67.5V32.5C50 31.1187 48.8813 30 47.5 30H12.5C11.1187 30 10 31.1187 10 32.5ZM45 65H32.5V57.5H45V65ZM45 52.5H32.5V45H45V52.5ZM15 35H45V40H15V35ZM15 45H27.5V52.5H15V45ZM15 57.5H27.5V65H15V57.5Z" fill="#03A3DF"/>
</svg>
