<svg width="100" height="73" viewBox="0 0 291 73" fill="none" xmlns="http://www.w3.org/2000/svg">
<path fill-rule="evenodd" clip-rule="evenodd" d="M47 0H108C100.211 11.2503 93.4314 20.2997 87.955 27.6092C71.2832 49.8617 66.6925 55.989 82.5 59H160L155 69H0L47 0ZM101.5 42H124C143 24.5 98.5 16.5 85.5 42C77.0884 58.5 111.5 59 122 51L119.5 47C111.167 50.6667 97 53.5 96.5 43.5C96.2169 37.8378 103.5 30.5 112.5 30C117.061 29.7466 117.1 40.7347 105.5 38C102.5 37.2927 98.3 40.4 101.5 42ZM148.5 25H135C137.5 27 139.5 42.5 139 43.5C138.6 44.3 128.5 50.1667 123.5 53L126.5 56.5C128.9 56.5 137.833 51.1667 142 48.5C141.6 49.7 143.833 52 145 53C153.5 60 167.5 54 167.5 47H163.5C159.373 51.5851 156.088 45.6587 154.029 41.9446C153.842 41.6085 153.666 41.2905 153.5 41L171.5 28L167.5 25L152.5 36C150.5 36 148.667 28 148.5 25ZM186.001 9H201.501C194.001 21.6667 181.501 46.5 191.501 44.5C201.501 42.5 213.501 23.5 221.001 9H236.501L217.501 56H199.501C204.834 47.3333 212.101 32.9 202.501 44.5C192.901 56.1 168 64.5 170.5 43.5C170.5 41.5 180.501 14.5 186.001 9ZM241 13.5L246.5 8.5H291L254.5 43.5C249.346 49.2262 254.901 49.3167 263.425 49.4557C266.81 49.5109 270.663 49.5737 274.5 50L270.5 56H224L263.5 13.5H241ZM237.759 72.8229V62.1562H233.875V72.8229H237.759ZM234.1 60.4047C234.536 60.7852 235.108 60.9754 235.817 60.9754C236.526 60.9754 237.098 60.7852 237.534 60.4047C237.97 60.0111 238.188 59.5191 238.188 58.9287C238.188 58.3645 237.97 57.9053 237.534 57.551C237.098 57.1837 236.526 57 235.817 57C235.108 57 234.536 57.1902 234.1 57.5707C233.664 57.9512 233.446 58.4235 233.446 58.9877C233.446 59.5519 233.664 60.0242 234.1 60.4047ZM227.467 58.2202H231.351V72.8229H227.467V58.2202ZM197.255 73C196.069 73 195 72.7638 194.046 72.2915C193.092 71.8192 192.342 71.1632 191.797 70.3235C191.266 69.4838 191 68.5326 191 67.4699C191 66.4203 191.266 65.4756 191.797 64.6359C192.342 63.7962 193.085 63.1468 194.025 62.6876C194.979 62.2153 196.056 61.9791 197.255 61.9791C198.454 61.9791 199.531 62.2153 200.485 62.6876C201.439 63.1468 202.181 63.7962 202.713 64.6359C203.244 65.4625 203.51 66.4071 203.51 67.4699C203.51 68.5326 203.244 69.4838 202.713 70.3235C202.181 71.1632 201.439 71.8192 200.485 72.2915C199.531 72.7638 198.454 73 197.255 73ZM197.255 70.0283C197.936 70.0283 198.495 69.8053 198.931 69.3592C199.367 68.9 199.585 68.2702 199.585 67.4699C199.585 66.6827 199.367 66.066 198.931 65.6199C198.495 65.1738 197.936 64.9508 197.255 64.9508C196.574 64.9508 196.015 65.1738 195.579 65.6199C195.143 66.066 194.925 66.6827 194.925 67.4699C194.925 68.2702 195.143 68.9 195.579 69.3592C196.015 69.8053 196.574 70.0283 197.255 70.0283ZM212.525 61.9791C213.901 61.9791 215.005 62.3727 215.836 63.1599C216.681 63.9471 217.104 65.1345 217.104 66.722V72.8229H213.22V67.3321C213.22 65.8758 212.614 65.1476 211.401 65.1476C210.733 65.1476 210.195 65.3575 209.786 65.7774C209.391 66.1972 209.193 66.827 209.193 67.6667V72.8229H205.309V62.1562H209.009V63.3173C209.445 62.8844 209.963 62.5564 210.563 62.3333C211.162 62.0972 211.816 61.9791 212.525 61.9791ZM225.245 65.7774H219.276V68.6507H225.245V65.7774ZM247.499 61.9791C248.875 61.9791 249.979 62.3727 250.81 63.1599C251.655 63.9471 252.077 65.1345 252.077 66.722V72.8229H248.194V67.3321C248.194 65.8758 247.587 65.1476 246.374 65.1476C245.707 65.1476 245.168 65.3575 244.759 65.7774C244.364 66.1972 244.167 66.827 244.167 67.6667V72.8229H240.283V62.1562H243.983V63.3173C244.419 62.8844 244.937 62.5564 245.536 62.3333C246.136 62.0972 246.79 61.9791 247.499 61.9791ZM265.939 68.4342C265.98 67.8438 266 67.5355 266 67.5092C266 66.3678 265.734 65.3838 265.203 64.5572C264.685 63.7175 263.976 63.0812 263.077 62.6482C262.177 62.2021 261.176 61.9791 260.072 61.9791C258.914 61.9791 257.871 62.2153 256.945 62.6876C256.018 63.1599 255.289 63.8159 254.757 64.6556C254.239 65.4822 253.981 66.4203 253.981 67.4699C253.981 68.5326 254.246 69.4838 254.778 70.3235C255.323 71.1632 256.086 71.8192 257.067 72.2915C258.048 72.7638 259.186 73 260.481 73C262.552 73 264.126 72.4227 265.203 71.2681L263.159 69.2214C262.763 69.5494 262.368 69.7856 261.973 69.9299C261.592 70.0742 261.135 70.1464 260.604 70.1464C259.895 70.1464 259.302 70.0021 258.825 69.7134C258.362 69.4116 258.048 68.9852 257.885 68.4342H265.939ZM258.58 65.1279C258.989 64.7999 259.493 64.6359 260.092 64.6359C260.692 64.6359 261.189 64.7999 261.585 65.1279C261.994 65.4559 262.252 65.902 262.361 66.4662H257.824C257.933 65.902 258.185 65.4559 258.58 65.1279Z" fill="#3184BE"/>
<path fill-rule="evenodd" clip-rule="evenodd" d="M47 0H108C100.211 11.2503 93.4314 20.2997 87.955 27.6092C71.2832 49.8617 66.6925 55.989 82.5 59H160L155 69H0L47 0ZM101.5 42H124C143 24.5 98.5 16.5 85.5 42C77.0884 58.5 111.5 59 122 51L119.5 47C111.167 50.6667 97 53.5 96.5 43.5C96.2169 37.8378 103.5 30.5 112.5 30C117.061 29.7466 117.1 40.7347 105.5 38C102.5 37.2927 98.3 40.4 101.5 42ZM148.5 25H135C137.5 27 139.5 42.5 139 43.5C138.6 44.3 128.5 50.1667 123.5 53L126.5 56.5C128.9 56.5 137.833 51.1667 142 48.5C141.6 49.7 143.833 52 145 53C153.5 60 167.5 54 167.5 47H163.5C159.373 51.5851 156.088 45.6587 154.029 41.9446C153.842 41.6085 153.666 41.2905 153.5 41L171.5 28L167.5 25L152.5 36C150.5 36 148.667 28 148.5 25ZM186.001 9H201.501C194.001 21.6667 181.501 46.5 191.501 44.5C201.501 42.5 213.501 23.5 221.001 9H236.501L217.501 56H199.501C204.834 47.3333 212.101 32.9 202.501 44.5C192.901 56.1 168 64.5 170.5 43.5C170.5 41.5 180.501 14.5 186.001 9ZM241 13.5L246.5 8.5H291L254.5 43.5C249.346 49.2262 254.901 49.3167 263.425 49.4557C266.81 49.5109 270.663 49.5737 274.5 50L270.5 56H224L263.5 13.5H241ZM237.759 72.8229V62.1562H233.875V72.8229H237.759ZM234.1 60.4047C234.536 60.7852 235.108 60.9754 235.817 60.9754C236.526 60.9754 237.098 60.7852 237.534 60.4047C237.97 60.0111 238.188 59.5191 238.188 58.9287C238.188 58.3645 237.97 57.9053 237.534 57.551C237.098 57.1837 236.526 57 235.817 57C235.108 57 234.536 57.1902 234.1 57.5707C233.664 57.9512 233.446 58.4235 233.446 58.9877C233.446 59.5519 233.664 60.0242 234.1 60.4047ZM227.467 58.2202H231.351V72.8229H227.467V58.2202ZM197.255 73C196.069 73 195 72.7638 194.046 72.2915C193.092 71.8192 192.342 71.1632 191.797 70.3235C191.266 69.4838 191 68.5326 191 67.4699C191 66.4203 191.266 65.4756 191.797 64.6359C192.342 63.7962 193.085 63.1468 194.025 62.6876C194.979 62.2153 196.056 61.9791 197.255 61.9791C198.454 61.9791 199.531 62.2153 200.485 62.6876C201.439 63.1468 202.181 63.7962 202.713 64.6359C203.244 65.4625 203.51 66.4071 203.51 67.4699C203.51 68.5326 203.244 69.4838 202.713 70.3235C202.181 71.1632 201.439 71.8192 200.485 72.2915C199.531 72.7638 198.454 73 197.255 73ZM197.255 70.0283C197.936 70.0283 198.495 69.8053 198.931 69.3592C199.367 68.9 199.585 68.2702 199.585 67.4699C199.585 66.6827 199.367 66.066 198.931 65.6199C198.495 65.1738 197.936 64.9508 197.255 64.9508C196.574 64.9508 196.015 65.1738 195.579 65.6199C195.143 66.066 194.925 66.6827 194.925 67.4699C194.925 68.2702 195.143 68.9 195.579 69.3592C196.015 69.8053 196.574 70.0283 197.255 70.0283ZM212.525 61.9791C213.901 61.9791 215.005 62.3727 215.836 63.1599C216.681 63.9471 217.104 65.1345 217.104 66.722V72.8229H213.22V67.3321C213.22 65.8758 212.614 65.1476 211.401 65.1476C210.733 65.1476 210.195 65.3575 209.786 65.7774C209.391 66.1972 209.193 66.827 209.193 67.6667V72.8229H205.309V62.1562H209.009V63.3173C209.445 62.8844 209.963 62.5564 210.563 62.3333C211.162 62.0972 211.816 61.9791 212.525 61.9791ZM225.245 65.7774H219.276V68.6507H225.245V65.7774ZM247.499 61.9791C248.875 61.9791 249.979 62.3727 250.81 63.1599C251.655 63.9471 252.077 65.1345 252.077 66.722V72.8229H248.194V67.3321C248.194 65.8758 247.587 65.1476 246.374 65.1476C245.707 65.1476 245.168 65.3575 244.759 65.7774C244.364 66.1972 244.167 66.827 244.167 67.6667V72.8229H240.283V62.1562H243.983V63.3173C244.419 62.8844 244.937 62.5564 245.536 62.3333C246.136 62.0972 246.79 61.9791 247.499 61.9791ZM265.939 68.4342C265.98 67.8438 266 67.5355 266 67.5092C266 66.3678 265.734 65.3838 265.203 64.5572C264.685 63.7175 263.976 63.0812 263.077 62.6482C262.177 62.2021 261.176 61.9791 260.072 61.9791C258.914 61.9791 257.871 62.2153 256.945 62.6876C256.018 63.1599 255.289 63.8159 254.757 64.6556C254.239 65.4822 253.981 66.4203 253.981 67.4699C253.981 68.5326 254.246 69.4838 254.778 70.3235C255.323 71.1632 256.086 71.8192 257.067 72.2915C258.048 72.7638 259.186 73 260.481 73C262.552 73 264.126 72.4227 265.203 71.2681L263.159 69.2214C262.763 69.5494 262.368 69.7856 261.973 69.9299C261.592 70.0742 261.135 70.1464 260.604 70.1464C259.895 70.1464 259.302 70.0021 258.825 69.7134C258.362 69.4116 258.048 68.9852 257.885 68.4342H265.939ZM258.58 65.1279C258.989 64.7999 259.493 64.6359 260.092 64.6359C260.692 64.6359 261.189 64.7999 261.585 65.1279C261.994 65.4559 262.252 65.902 262.361 66.4662H257.824C257.933 65.902 258.185 65.4559 258.58 65.1279Z" fill="url(#paint0_linear)"/>
<defs>
<linearGradient id="paint0_linear" x1="152.5" y1="-31.5" x2="145.5" y2="73" gradientUnits="userSpaceOnUse">
<stop stop-color="white"/>
<stop offset="1" stop-color="white" stop-opacity="0"/>
</linearGradient>
</defs>
</svg>
