<svg width="60" height="80" viewBox="0 0 60 80" fill="none" xmlns="http://www.w3.org/2000/svg">
<g clip-path="url(#clip0)">
<path d="M57.7969 15.2969L44.6875 2.1875C43.2813 0.78125 41.375 -0.015625 39.3906 -0.015625H7.5C3.35938 1.72295e-09 0 3.35937 0 7.5V72.5C0 76.6406 3.35938 80 7.5 80H52.5C56.6406 80 60 76.6406 60 72.5V20.6094C60 18.625 59.2031 16.7031 57.7969 15.2969ZM54.2656 18.8438C54.5938 19.1719 54.8125 19.5625 54.9219 20H40V5.07813C40.4375 5.1875 40.8281 5.40625 41.1563 5.73438L54.2656 18.8438ZM52.5 75H7.5C6.125 75 5 73.875 5 72.5V7.5C5 6.125 6.125 5 7.5 5H35V21.25C35 23.3281 36.6719 25 38.75 25H55V72.5C55 73.875 53.875 75 52.5 75ZM31.9219 32.5H21.875C20.8438 32.5 20 33.3438 20 34.375V63.125C20 64.1563 20.8438 65 21.875 65H23.125C24.1563 65 25 64.1563 25 63.125V53.6875H31.9219C37.9688 53.6875 42.5 49.4219 42.5 42.9063C42.5 36.875 38.7813 32.5 31.9219 32.5ZM35.9844 47.7656C34.8125 48.9531 33.2031 49.5469 31.1406 49.5469H25V36.4063H31.2031C33.2188 36.4063 34.8125 36.9844 35.9844 38.1406C38.375 40.5 38.3281 45.4063 35.9844 47.7656Z" fill="#03A3DF"/>
</g>
<defs>
<clipPath id="clip0">
<rect width="60" height="80" fill="white"/>
</clipPath>
</defs>
</svg>
