<svg width="32" height="32" viewBox="0 0 32 32" fill="none" xmlns="http://www.w3.org/2000/svg">
<g clip-path="url(#clip0)">
<path d="M24.5715 18.2843H23.4285C23.2616 18.2843 23.1246 18.3378 23.018 18.4452C22.9106 18.5521 22.8571 18.689 22.8571 18.8557V24.5699C22.8571 25.3557 22.5775 26.0282 22.018 26.5878C21.4586 27.1473 20.7858 27.4268 20.0001 27.4268H5.14275C4.35705 27.4268 3.68437 27.1473 3.12478 26.5878C2.56531 26.0283 2.2856 25.3558 2.2856 24.5699V9.71281C2.2856 8.92711 2.56524 8.25468 3.12478 7.69515C3.68437 7.13556 4.35705 6.85592 5.14275 6.85592H17.714C17.881 6.85592 18.0179 6.80219 18.125 6.69517C18.232 6.58803 18.2854 6.45125 18.2854 6.28444V5.14142C18.2854 4.97492 18.232 4.83788 18.125 4.73093C18.0179 4.62379 17.881 4.57031 17.714 4.57031H5.14275C3.72621 4.57031 2.51483 5.0733 1.50872 6.07922C0.502991 7.08508 0 8.29646 0 9.713V24.5702C0 25.9867 0.502991 27.1982 1.50879 28.2038C2.51489 29.2098 3.72628 29.713 5.14281 29.713H20.0001C21.4165 29.713 22.628 29.2098 23.634 28.2038C24.6401 27.1982 25.1431 25.9867 25.1431 24.5702V18.8562C25.1431 18.6892 25.0895 18.5522 24.9821 18.4452C24.8749 18.3378 24.738 18.2843 24.5715 18.2843Z" fill="#03A3DF"/>
<path d="M31.66 2.6244C31.4338 2.39818 31.1656 2.28516 30.8563 2.28516H21.7135C21.4041 2.28516 21.1361 2.39818 20.91 2.6244C20.6838 2.85051 20.5705 3.11839 20.5705 3.42793C20.5705 3.73746 20.6838 4.00541 20.91 4.23164L24.0527 7.37443L12.4101 19.0173C12.2909 19.1364 12.2314 19.2733 12.2314 19.4278C12.2314 19.5829 12.2911 19.7198 12.4101 19.8388L14.4458 21.8743C14.5648 21.9933 14.7018 22.0527 14.8565 22.0527C15.0113 22.0527 15.1483 21.9934 15.2673 21.8743L26.91 10.2316L30.053 13.3744C30.279 13.6006 30.547 13.7137 30.8565 13.7137C31.166 13.7137 31.434 13.6006 31.6603 13.3744C31.8865 13.1482 31.9995 12.8804 31.9995 12.5708V3.42793C31.9995 3.1182 31.8861 2.85051 31.66 2.6244Z" fill="#03A3DF"/>
</g>
<defs>
<clipPath id="clip0">
<rect width="31.9999" height="32" fill="white"/>
</clipPath>
</defs>
</svg>
