<svg width="64" height="103" viewBox="0 0 64 103" fill="none" xmlns="http://www.w3.org/2000/svg">
<path d="M19.3715 27.0759C26.1737 17.923 28.5941 6.54494 28.954 2C43.8002 17.8488 38.8289 30.5409 34.4875 34.9058C38.5635 33.0429 41.1346 28.0097 41.9106 25.726C49.9275 34.9868 46.2295 43.1407 43.1928 45.3007C20.5726 56.9916 24.7701 69.4992 29.5276 73.9541C42.7879 83.8765 54.125 71.4229 49.0975 65.5842C45.2212 61.0825 39.47 65.7755 37.1868 68.5879C35.3648 67.2379 35.466 64.3017 35.9047 62.8505C36.2556 61.6895 36.3208 60.7693 36.377 60.2518C36.701 56.6878 40.2573 53.9743 42.1468 53.2994C49.9208 50.8154 52.2692 45.6382 52.2692 41.5545C59.5573 46.8869 57.9715 54.2443 55.9807 57.3831C74.1673 80.2315 52.6741 102 34.3526 102C17.7181 102 3.95167 89.3102 1.6573 75.3378C-1.72904 54.7156 8.54036 42.9382 19.3715 27.0759Z" fill="#03A3DF" stroke="#03A3DF"/>
</svg>
