<svg width="60" height="80" viewBox="0 0 60 80" fill="none" xmlns="http://www.w3.org/2000/svg">
<g clip-path="url(#clip0)">
<path d="M57.7969 15.2969L44.6875 2.1875C43.2812 0.78125 41.375 -0.015625 39.3906 -0.015625H7.5C3.35938 2.32831e-10 0 3.35937 0 7.5V72.5C0 76.6406 3.35938 80 7.5 80H52.5C56.6406 80 60 76.6406 60 72.5V20.6094C60 18.625 59.2031 16.7031 57.7969 15.2969ZM54.2656 18.8437C54.5937 19.1719 54.8125 19.5625 54.9219 20H40V5.07812C40.4375 5.1875 40.8281 5.40625 41.1562 5.73437L54.2656 18.8437ZM52.5 75H7.5C6.125 75 5 73.875 5 72.5V7.5C5 6.125 6.125 5 7.5 5H35V21.25C35 23.3281 36.6719 25 38.75 25H55V72.5C55 73.875 53.875 75 52.5 75ZM44.125 36.4844C43.0625 41.6094 39.0469 58.3125 38.9062 59.9687C38 55.4219 38.7969 60.2188 32.375 36.3906C32.1562 35.5781 31.4063 35 30.5625 35H29.5625C28.7187 35 27.9688 35.5625 27.75 36.3906C21.7656 58.625 21.9062 58.3594 21.5937 60.5625C20.9531 56.8281 21.9219 60.1094 16.2188 36.4375C16.0156 35.5938 15.2656 35 14.3906 35H13.2656C12.0469 35 11.1563 36.1406 11.4531 37.3281C12.9375 43.2656 16.8438 58.7969 18.0469 63.5781C18.25 64.4063 19 65 19.8594 65H22.5156C23.3594 65 24.1094 64.4219 24.3281 63.6094C29.6719 43.6563 29.5625 44.3281 30.0625 41.2813C31.0781 46.1406 30.0938 42.375 35.7969 63.6094C36.0156 64.4219 36.7656 65 37.6094 65H39.7969C40.6562 65 41.9375 64.4219 42.1562 63.5938L48.8438 37.3438C49.1406 36.1563 48.25 35 47.0312 35H45.9688C45.0781 35 44.3125 35.625 44.125 36.4844V36.4844Z" fill="#03A3DF"/>
</g>
<defs>
<clipPath id="clip0">
<rect width="60" height="80" fill="white"/>
</clipPath>
</defs>
</svg>
