<svg width="28" height="28" viewBox="0 0 28 28" fill="none" xmlns="http://www.w3.org/2000/svg">
<path d="M25.1541 20.5901C25.1843 20.5548 25.2076 20.5143 25.223 20.4705C26.3615 18.5041 26.961 16.2722 26.961 14C26.961 11.7279 26.3615 9.49598 25.223 7.52964C25.2076 7.48583 25.1843 7.44526 25.1541 7.40998C23.4704 4.5706 20.7707 2.47705 17.6015 1.55317C17.5693 1.53847 17.5351 1.52838 17.5 1.5232C15.2113 0.877682 12.7887 0.877682 10.5 1.5232C10.4655 1.5281 10.4318 1.53767 10.3998 1.55164C7.22987 2.47546 4.52957 4.56966 2.84595 7.40998C2.81577 7.44526 2.79241 7.48583 2.77704 7.52964C1.63857 9.49598 1.03906 11.7279 1.03906 14C1.03906 16.2722 1.63857 18.5041 2.77704 20.4705C2.79241 20.5143 2.81577 20.5548 2.84595 20.5901C4.52829 23.4283 7.2258 25.5216 10.3928 26.4465C10.4263 26.4614 10.4617 26.4715 10.498 26.4765C12.7874 27.1224 15.2109 27.1224 17.5002 26.4765C17.5384 26.4716 17.5757 26.4611 17.6107 26.4452C20.7761 25.5197 23.4722 23.427 25.1541 20.5901ZM14.3828 26.1857V20.7266H19.6138C19.045 22.8069 18.2267 24.5355 17.2314 25.7579C16.3022 26.0129 15.346 26.1566 14.3828 26.1857ZM10.7686 25.7574C9.77332 24.5355 8.95498 22.8071 8.38623 20.7262H13.6172V26.1853C12.6541 26.1561 11.6978 26.0125 10.7686 25.7574ZM1.81432 14.3824H3.50001V17.3907C3.50007 17.4922 3.54042 17.5895 3.6122 17.6613C3.68398 17.7331 3.78131 17.7734 3.88282 17.7735H7.01423C7.11573 18.5223 7.24742 19.2544 7.40798 19.961H3.36658C2.40575 18.2545 1.87311 16.3404 1.81432 14.3829V14.3824ZM3.36745 8.03867H7.4082C7.24742 8.74523 7.11573 9.47761 7.01445 10.2262H3.88282C3.83252 10.2262 3.78272 10.2361 3.73626 10.2554C3.6898 10.2747 3.64759 10.3029 3.61204 10.3385C3.5765 10.3741 3.54831 10.4163 3.52909 10.4628C3.50986 10.5093 3.49998 10.5591 3.50001 10.6094V13.6172H1.81432C1.87311 11.6597 2.40575 9.74563 3.36658 8.03911L3.36745 8.03867ZM13.6172 1.81436V7.27348H8.38623C8.95498 5.19317 9.77332 3.46461 10.7686 2.24223C11.6978 1.98716 12.6541 1.84352 13.6172 1.81436ZM17.2314 2.24267C18.2267 3.46461 19.045 5.19295 19.6138 7.27392H14.3828V1.81436C15.346 1.84367 16.3022 1.98745 17.2314 2.24267ZM26.1857 13.6177H24.5V10.6094C24.5 10.5079 24.4596 10.4106 24.3878 10.3388C24.316 10.267 24.2187 10.2267 24.1172 10.2266H20.9858C20.8843 9.47783 20.7526 8.74567 20.592 8.03911H24.6334C25.5943 9.74563 26.1269 11.6597 26.1857 13.6172V13.6177ZM24.6326 19.9614H20.5918C20.7526 19.2549 20.8843 18.5225 20.9856 17.7739H24.1172C24.1675 17.7739 24.2173 17.764 24.2638 17.7447C24.3102 17.7254 24.3524 17.6972 24.388 17.6616C24.4235 17.626 24.4517 17.5837 24.4709 17.5373C24.4902 17.4908 24.5 17.441 24.5 17.3907V14.3829H26.1857C26.1269 16.3404 25.5943 18.2545 24.6334 19.961L24.6326 19.9614ZM14.3819 19.9614V17.7739H20.2125C20.1077 18.5245 19.9719 19.2568 19.8052 19.9614H14.3819ZM4.26564 17.0079V10.9922H23.7344V17.0079H4.26564ZM20.2125 10.2266H14.3828V8.03911H19.8059C19.9719 8.74348 20.1082 9.47608 20.2125 10.2266ZM13.6165 8.03911V10.2266H7.78751C7.89229 9.47608 8.02814 8.7437 8.19482 8.03911H13.6165ZM7.78751 17.7735H13.6172V19.961H8.19417C8.02814 19.2564 7.89186 18.524 7.78751 17.7735ZM18.4748 25.3422C19.3536 23.9129 20.0052 22.3558 20.4063 20.7266H24.1664C22.7838 22.8092 20.7976 24.4194 18.4741 25.3414L18.4748 25.3422ZM24.1664 7.27348H20.4057C20.0044 5.64432 19.3528 4.08726 18.4741 2.65786C20.7974 3.58032 22.7833 5.19078 24.1658 7.27348H24.1664ZM9.52657 2.65786C8.64786 4.08723 7.99626 5.6443 7.59501 7.27348H3.83426C5.21671 5.19096 7.20264 3.58071 9.52592 2.65852L9.52657 2.65786ZM3.83426 20.7266H7.59436C7.99543 22.3558 8.64696 23.9129 9.5257 25.3422C7.20246 24.4197 5.21663 22.8093 3.83426 20.7266Z" fill="#999999"/>
<path d="M10.0165 14.6974L9.25567 12.3867H8.61692L7.85151 14.6974L7.16114 12.3867H6.51758L7.54155 15.6133H8.12386L8.93629 13.2182L9.74414 15.6133H10.3313L11.3502 12.3867H10.7069L10.0165 14.6974Z" fill="#999999"/>
<path d="M14.8106 15.6133H15.3975L16.4166 12.3867H15.7731L15.0829 14.6974L14.3221 12.3867H13.6833L12.9177 14.6974L12.2275 12.3867H11.584L12.6077 15.6133H13.1903L14.0027 13.2182L14.8106 15.6133Z" fill="#999999"/>
<path d="M18.2557 15.6133L19.0679 13.2182L19.8758 15.6133H20.4629L21.482 12.3867H20.8385L20.1481 14.6974L19.3873 12.3867H18.7485L17.9831 14.6974L17.2928 12.3867H16.6494L17.6732 15.6133H18.2557Z" fill="#999999"/>
</svg>
