<svg width="60" height="80" viewBox="0 0 60 80" fill="none" xmlns="http://www.w3.org/2000/svg">
<path d="M20 15V20H25V15H20ZM30.2969 41.5C30.125 40.625 29.3594 40 28.4531 40H25V35H20V40L16.9687 55.1875C15.9531 60.2656 19.8281 65 25 65C30.1719 65 34.0469 60.2656 33.0312 55.1875L30.2969 41.5ZM25.0469 60.9531C22.25 60.9531 19.9844 59.0625 19.9844 56.7344C19.9844 54.4063 22.25 52.5156 25.0469 52.5156C27.8438 52.5156 30.1094 54.4063 30.1094 56.7344C30.1094 59.0625 27.8438 60.9531 25.0469 60.9531ZM20 25V30H25V25H20ZM30 10H25V15H30V10ZM57.7969 15.2969L44.6875 2.1875C43.2812 0.78125 41.375 -0.015625 39.3906 -0.015625H7.5C3.35938 2.32831e-10 0 3.35937 0 7.5V72.5C0 76.6406 3.35938 80 7.5 80H52.5C56.6406 80 60 76.6406 60 72.5V20.6094C60 18.625 59.2031 16.7031 57.7969 15.2969ZM40 5.07812C40.4375 5.1875 40.8437 5.40625 41.1562 5.73437L54.2656 18.8437C54.5781 19.1562 54.8125 19.5625 54.9219 20H40V5.07812ZM55 72.5C55 73.875 53.875 75 52.5 75H7.5C6.125 75 5 73.875 5 72.5V7.5C5 6.125 6.125 5 7.5 5H19.9531V10H24.9531V5H35V21.25C35 23.3281 36.6719 25 38.75 25H55V72.5ZM30 30H25V35H30V30ZM30 20H25V25H30V20Z" fill="#03A3DF"/>
</svg>
